<svg xmlns="http://www.w3.org/2000/svg" width="20" height="20" viewBox="0 0 20 20">
  <g id="btn_minus_p" transform="translate(-393 -9)">
    <path id="Shape" d="M.369,4.542A4.811,4.811,0,0,1,4.542.369,42.089,42.089,0,0,1,10,0a42.089,42.089,0,0,1,5.458.369,4.811,4.811,0,0,1,4.173,4.173A42.089,42.089,0,0,1,20,10a42.089,42.089,0,0,1-.369,5.458,4.811,4.811,0,0,1-4.173,4.173A42.089,42.089,0,0,1,10,20a42.089,42.089,0,0,1-5.458-.369A4.811,4.811,0,0,1,.369,15.458,42.089,42.089,0,0,1,0,10,42.089,42.089,0,0,1,.369,4.542Z" transform="translate(393 9)" fill="#dbe9ff"/>
    <path id="Shape-2" data-name="Shape" d="M1,2A1,1,0,1,1,1,0H9A1,1,0,1,1,9,2Z" transform="translate(398 18)" fill="#3868d8"/>
  </g>
</svg>
