<svg id="btn_close_pop_w" xmlns="http://www.w3.org/2000/svg" width="30" height="30" viewBox="0 0 30 30">
  <path id="Shape" d="M.553,6.813A7.216,7.216,0,0,1,6.813.553,63.134,63.134,0,0,1,15,0a63.134,63.134,0,0,1,8.187.553,7.216,7.216,0,0,1,6.259,6.259A63.134,63.134,0,0,1,30,15a63.134,63.134,0,0,1-.553,8.187,7.216,7.216,0,0,1-6.259,6.259A63.134,63.134,0,0,1,15,30a63.134,63.134,0,0,1-8.187-.553A7.216,7.216,0,0,1,.553,23.187,63.134,63.134,0,0,1,0,15,63.134,63.134,0,0,1,.553,6.813Z" fill="none" opacity="0.25"/>
  <path id="Shape-2" data-name="Shape" d="M.439.439a1.5,1.5,0,0,1,2.121,0L6,3.879,9.439.439a1.5,1.5,0,0,1,2.121,2.121L8.121,6l3.439,3.439a1.5,1.5,0,0,1-2.121,2.121L6,8.121,2.561,11.561A1.5,1.5,0,0,1,.439,9.439L3.879,6,.439,2.561A1.5,1.5,0,0,1,.439.439Z" transform="translate(9 9)" fill="#fff"/>
</svg>
