<svg xmlns="http://www.w3.org/2000/svg" width="20" height="20" viewBox="0 0 20 20">
  <g id="btn_plus_p" transform="translate(-393 -33)">
    <path id="Shape" d="M4.542.369A4.811,4.811,0,0,0,.369,4.542,42.089,42.089,0,0,0,0,10a42.089,42.089,0,0,0,.369,5.458,4.811,4.811,0,0,0,4.173,4.173A42.089,42.089,0,0,0,10,20a42.089,42.089,0,0,0,5.458-.369,4.811,4.811,0,0,0,4.173-4.173A42.089,42.089,0,0,0,20,10a42.089,42.089,0,0,0-.369-5.458A4.811,4.811,0,0,0,15.458.369,42.089,42.089,0,0,0,10,0,42.089,42.089,0,0,0,4.542.369Z" transform="translate(393 33)" fill="#dbe9ff"/>
    <path id="Shape-2" data-name="Shape" d="M5,10A1,1,0,0,0,6,9V6H9A1,1,0,0,0,9,4H6V1A1,1,0,0,0,4,1V4H1A1,1,0,0,0,1,6H4V9A1,1,0,0,0,5,10Z" transform="translate(398 38)" fill="#3868d8"/>
  </g>
</svg>
