<svg xmlns="http://www.w3.org/2000/svg" width="36" height="36" viewBox="0 0 36 36">
  <g id="btn_cctv" transform="translate(2 3)">
    <rect id="slice" width="36" height="36" transform="translate(-2 -3)" fill="none"/>
    <g id="Background" transform="translate(0 -1)" fill="none" stroke="#dbdde8" stroke-width="1">
      <rect width="32" height="32" rx="6" stroke="none"/>
      <rect x="-0.5" y="-0.5" width="33" height="33" rx="6.5" fill="none"/>
    </g>
    <g id="그룹_1153" data-name="그룹 1153" transform="translate(5 7.367)">
      <path id="빼기_13" data-name="빼기 13" d="M8,12A8.009,8.009,0,0,1,0,4V0H16V4A8.009,8.009,0,0,1,8,12ZM8,3a3.5,3.5,0,1,0,3.5,3.5A3.5,3.5,0,0,0,8,3Z" transform="translate(3.5 6)" fill="#83849a" opacity="0.5"/>
      <path id="사각형_136" data-name="사각형 136" d="M0,0H22.5a0,0,0,0,1,0,0V3a3,3,0,0,1-3,3H3A3,3,0,0,1,0,3V0A0,0,0,0,1,0,0Z" fill="#83849a"/>
      <circle id="타원_132" data-name="타원 132" cx="2" cy="2" r="2" transform="translate(9.5 10.5)" fill="#83849a"/>
    </g>
  </g>
</svg>
