<svg xmlns="http://www.w3.org/2000/svg" width="36" height="36" viewBox="0 0 36 36">
  <g id="down_02_p" transform="translate(-1177 -439)">
    <rect id="사각형_263" data-name="사각형 263" width="36" height="36" rx="6" transform="translate(1177 439)" fill="#f6f8fe"/>
    <g id="그룹_1269" data-name="그룹 1269" transform="translate(1188 454)">
      <path id="패스_759" data-name="패스 759" d="M-14891.567-5766.362l-5.261,5.261-5.265-5.261a.9.9,0,0,0-1.271,0,.9.9,0,0,0,0,1.272l5.8,5.8a.9.9,0,0,0,.737.258.9.9,0,0,0,.736-.258l5.8-5.8a.9.9,0,0,0,0-1.272.9.9,0,0,0-.638-.264A.9.9,0,0,0-14891.567-5766.362Z" transform="translate(14903.628 5766.626)" fill="#3868d8"/>
    </g>
  </g>
</svg>
