<svg xmlns="http://www.w3.org/2000/svg" width="50" height="40" viewBox="0 0 50 40">
  <g id="footer_logo_kt" transform="translate(-774.123 -535.15)">
    <rect id="사각형_117" data-name="사각형 117" width="50" height="40" transform="translate(774.123 535.15)" fill="none"/>
    <path id="패스_1" data-name="패스 1" d="M792.7,557.9l3.732-4.6h-4.369a6.5,6.5,0,0,0-4.356,1.383l-.33.406V540.15h-4.438a1.891,1.891,0,0,0-1.887,1.892v27.883h4.438a1.892,1.892,0,0,0,1.887-1.893v-7.418l3.594,4.413,3.058,3.762a2.843,2.843,0,0,0,2.26,1.133h6.191l-4-4.912Zm17.712,5.061V553.3h-6.334v10.844a5.509,5.509,0,0,0,5.782,5.777h4.871a1.9,1.9,0,0,0,1.9-1.893v-3.37h-4.519A1.7,1.7,0,0,1,810.417,562.961Zm7.27-13.061,0-4.2-.392.415c-.011.012-1.2,1.224-4.614,1.224h-2.261V540.15h-4.439a1.894,1.894,0,0,0-1.895,1.888v5.3h-7.539a5.392,5.392,0,0,0-4.662,2.158l-3.706,4.567A6.819,6.819,0,0,1,792.5,552.4h20.179c2.209,0,3.723-.434,4.5-1.286A1.733,1.733,0,0,0,817.687,549.9Z" fill="#fff"/>
  </g>
</svg>
