<svg xmlns="http://www.w3.org/2000/svg" width="28" height="28" viewBox="0 0 28 28">
  <g id="ic_air" transform="translate(-262 -613)">
    <g id="타원_21" data-name="타원 21" transform="translate(262 613)" fill="#50cd89" stroke="#159d53" stroke-width="1">
      <circle cx="14" cy="14" r="14" stroke="none"/>
      <circle cx="14" cy="14" r="13.5" fill="none"/>
    </g>
    <path id="패스_521" data-name="패스 521" d="M66.49,113.829H59.876a3.3,3.3,0,0,1-.435-.007.624.624,0,0,1-.6-.639.631.631,0,0,1,.553-.685,2.5,2.5,0,0,1,.53-.02c5.727,0,9.453,0,15.18,0a2.266,2.266,0,1,0-2.188-2.47c-.008.08-.005.162-.018.241a.673.673,0,1,1-1.343-.085,3.614,3.614,0,1,1,3.6,3.666C72.265,113.836,69.377,113.829,66.49,113.829Z" transform="translate(207.161 511.544)" fill="#fff" stroke="#fff" stroke-width="0.2"/>
    <path id="패스_522" data-name="패스 522" d="M106.482,197.258c1.6,0,1.2-.016,2.793,0a3.53,3.53,0,1,1-3.547,3.727c-.017-.536.2-.837.626-.86s.666.242.723.783a2.169,2.169,0,0,0,3.992,1.061,2.075,2.075,0,0,0,.088-2.207,2.116,2.116,0,0,0-1.985-1.153c-3.1,0-2.2,0-5.3,0-.161,0-.323.007-.484,0a.619.619,0,0,1-.643-.646.625.625,0,0,1,.6-.689,5.919,5.919,0,0,1,.774-.013Z" transform="translate(163.219 429.672)" fill="#fff" stroke="#fff" stroke-width="0.2"/>
    <g id="그룹_22" data-name="그룹 22" opacity="0.73">
      <circle id="타원_23" data-name="타원 23" cx="1" cy="1" r="1" transform="translate(278 628)" fill="#fff"/>
      <circle id="타원_24" data-name="타원 24" cx="1" cy="1" r="1" transform="translate(278 634)" fill="#fff"/>
      <circle id="타원_25" data-name="타원 25" cx="1.5" cy="1.5" r="1.5" transform="translate(282 630)" fill="#fff"/>
    </g>
  </g>
</svg>
