<svg xmlns="http://www.w3.org/2000/svg" width="28" height="28" viewBox="0 0 28 28">
  <g id="ic_becon" transform="translate(-287.521 -46)">
    <g id="타원_13" data-name="타원 13" transform="translate(287.521 46)" fill="#50cd89" stroke="#159d53" stroke-width="1">
      <circle cx="14" cy="14" r="14" stroke="none"/>
      <circle cx="14" cy="14" r="13.5" fill="none"/>
    </g>
    <g id="gen018" transform="translate(-91.953 -64.291)">
      <path id="빼기_3" data-name="빼기 3" d="M5.473,13.182a1.008,1.008,0,0,1-.751-.336L1.392,9.123A5.474,5.474,0,0,1,4.836.036,5.623,5.623,0,0,1,5.473,0,5.474,5.474,0,0,1,9.555,9.123L6.224,12.846A1.009,1.009,0,0,1,5.473,13.182Zm0-9.76A2.053,2.053,0,1,0,7.526,5.474,2.055,2.055,0,0,0,5.473,3.422Z" transform="translate(388.001 122)" fill="#fff"/>
    </g>
    <path id="패스_275" data-name="패스 275" d="M350.561,899.4a.7.7,0,0,0-.161-.972,7.655,7.655,0,0,0-8.924,0,.7.7,0,1,0,.812,1.133,6.267,6.267,0,0,1,7.3,0,.7.7,0,0,0,.973-.161Zm-3.245,4.541a.7.7,0,0,0-.16-.973,2.086,2.086,0,0,0-2.436,0,.7.7,0,1,0,.813,1.133.7.7,0,0,1,.809,0,.7.7,0,0,0,.974-.16Zm1.622-2.271a.7.7,0,0,0-.161-.972,4.956,4.956,0,0,0-5.679,0,.7.7,0,1,0,.812,1.133,3.547,3.547,0,0,1,4.055,0,.7.7,0,0,0,.973-.161Z" transform="translate(-44.417 -848.533)" fill="#fff" opacity="0.7"/>
  </g>
</svg>
