<svg xmlns="http://www.w3.org/2000/svg" width="20" height="20" viewBox="0 0 20 20">
  <g id="ic_date" transform="translate(-9.594 -13)">
    <rect id="slice" width="20" height="20" transform="translate(9.594 13)" fill="none"/>
    <g id="그룹_1177" data-name="그룹 1177" transform="translate(1 0)">
      <path id="합치기_19" data-name="합치기 19" d="M-1525.906-2557v-2h2v2Zm-3,0v-2h2v2Zm6-3v-2h2v2Zm-3,0v-2h2v2Zm-3,0v-2h2v2Zm-2-3.5a.5.5,0,0,1-.5-.5.5.5,0,0,1,.5-.5h12a.5.5,0,0,1,.5.5.5.5,0,0,1-.5.5Zm9-3v-2a.5.5,0,0,1,.5-.5.5.5,0,0,1,.5.5v2a.5.5,0,0,1-.5.5A.5.5,0,0,1-1521.906-2566.5Zm-7,0v-2a.5.5,0,0,1,.5-.5.5.5,0,0,1,.5.5v2a.5.5,0,0,1-.5.5A.5.5,0,0,1-1528.906-2566.5Z" transform="translate(1543.5 2585)" fill="#c3c5d2"/>
      <g id="사각형_176" data-name="사각형 176" transform="translate(11.594 17)" fill="none" stroke="#c3c5d2" stroke-width="1">
        <rect width="14" height="14" rx="2" stroke="none"/>
        <rect x="0.5" y="0.5" width="13" height="13" rx="1.5" fill="none"/>
      </g>
    </g>
  </g>
</svg>
