<svg xmlns="http://www.w3.org/2000/svg" xmlns:xlink="http://www.w3.org/1999/xlink" width="117" height="117" viewBox="0 0 117 117">
  <defs>
    <filter id="Icon_ionic-ios-warning" x="10" y="16" width="98" height="92" filterUnits="userSpaceOnUse">
      <feOffset dy="3" input="SourceAlpha"/>
      <feGaussianBlur stdDeviation="3" result="blur"/>
      <feFlood flood-opacity="0.102"/>
      <feComposite operator="in" in2="blur"/>
      <feComposite in="SourceGraphic"/>
    </filter>
  </defs>
  <g id="ic_error_alarm" transform="translate(-820 -503)">
    <rect id="사각형_165" data-name="사각형 165" width="117" height="117" transform="translate(820 503)" fill="none"/>
    <g transform="matrix(1, 0, 0, 1, 820, 503)" filter="url(#Icon_ionic-ios-warning)">
      <path id="Icon_ionic-ios-warning-2" data-name="Icon ionic-ios-warning" d="M38.16,7.564,4.106,69.847A5.857,5.857,0,0,0,9.317,78.5H77.443a5.87,5.87,0,0,0,5.211-8.653L48.581,7.564A5.963,5.963,0,0,0,38.16,7.564Zm8.6,25.842-.692,23.51H40.678l-.692-23.51ZM43.37,69.713a3.548,3.548,0,1,1,3.673-3.546A3.576,3.576,0,0,1,43.37,69.713Z" transform="translate(15.63 17.5)" fill="#fff"/>
    </g>
  </g>
</svg>
