<svg xmlns="http://www.w3.org/2000/svg" width="26" height="26" viewBox="0 0 26 26">
  <g id="ic_excel" transform="translate(-28.4 -9)">
    <path id="Icon_simple-microsoftexcel" data-name="Icon simple-microsoftexcel" d="M21.59,2.88H14.22V4.244h2.172V6.4H14.22v.688h2.172V9.25H14.22v.707h2.172V12H14.22v.819h2.172v2.048H14.22v.819h2.172v2.06H14.22v1.5h7.37c.116-.035.214-.172.291-.411A2.01,2.01,0,0,0,22,18.253V3.129c0-.117-.04-.188-.118-.213A1.008,1.008,0,0,0,21.59,2.88Zm-.956,14.863H17.1V15.685h3.536v2.058Zm0-2.877H17.1V12.818h3.536Zm0-2.867H17.1V9.965h3.536V12Zm0-2.75H17.1V7.091h3.536V9.25Zm0-2.859H17.1V4.245h3.536V6.39ZM0,2.54V19.591l12.98,2.245V.237L0,2.547Zm7.694,12.9q-.074-.2-.695-1.708c-.412-1-.66-1.589-.732-1.756H6.243L4.851,15.288,2.99,15.162,5.2,11.037,3.176,6.912l1.9-.1L6.328,10.04h.025L7.769,6.666,9.73,6.542,7.395,11.006,9.8,15.56l-2.107-.124v0Z" transform="translate(30.4 10.763)"/>
    <rect id="사각형_162" data-name="사각형 162" width="26" height="26" transform="translate(28.4 9)" fill="none"/>
  </g>
</svg>
