<svg xmlns="http://www.w3.org/2000/svg" width="28" height="28" viewBox="0 0 28 28">
  <g id="ic_lidar" transform="translate(-287.521 -46)">
    <g id="타원_13" data-name="타원 13" transform="translate(287.521 46)" fill="#50cd89" stroke="#159d53" stroke-width="1">
      <circle cx="14" cy="14" r="14" stroke="none"/>
      <circle cx="14" cy="14" r="13.5" fill="none"/>
    </g>
    <path id="패스_275" data-name="패스 275" d="M350.561,899.4a.7.7,0,0,0-.161-.972,7.655,7.655,0,0,0-8.924,0,.7.7,0,1,0,.812,1.133,6.267,6.267,0,0,1,7.3,0,.7.7,0,0,0,.973-.161Zm-1.622,2.27a.7.7,0,0,0-.161-.972,4.956,4.956,0,0,0-5.679,0,.7.7,0,1,0,.812,1.133,3.547,3.547,0,0,1,4.055,0,.7.7,0,0,0,.973-.161Z" transform="translate(1210.135 -285.857) rotate(90)" fill="#fff" opacity="0.7"/>
    <path id="패스_524" data-name="패스 524" d="M9.377,4.833a.7.7,0,0,1-.161.972,7.655,7.655,0,0,1-8.924,0A.7.7,0,1,1,1.1,4.672a6.267,6.267,0,0,0,7.3,0,.7.7,0,0,1,.973.161ZM7.755,2.563a.7.7,0,0,1-.161.972,4.956,4.956,0,0,1-5.679,0A.7.7,0,1,1,2.727,2.4a3.547,3.547,0,0,0,4.055,0,.7.7,0,0,1,.973.161Z" transform="translate(297.141 55.327) rotate(90)" fill="#fff" opacity="0.7"/>
    <path id="빼기_8" data-name="빼기 8" d="M-3227.979-3644h-2.5a2,2,0,0,1-2-2v-2.5h.5a.5.5,0,0,0,.5-.5.5.5,0,0,0-.5-.5h-.5v-2.5a2,2,0,0,1,2-2h2.5v.5a.5.5,0,0,0,.5.5.5.5,0,0,0,.5-.5v-.5h2.5a2,2,0,0,1,2,2v2.5h-.5a.5.5,0,0,0-.5.5.5.5,0,0,0,.5.5h.5v2.5a2,2,0,0,1-2,2h-2.5v-.5a.5.5,0,0,0-.5-.5.5.5,0,0,0-.5.5v.5Zm.5-8a3,3,0,0,0-3,3,3,3,0,0,0,3,3,3,3,0,0,0,3-3A3,3,0,0,0-3227.479-3652Z" transform="translate(3529 3709)" fill="#fff"/>
    <circle id="타원_31" data-name="타원 31" cx="1" cy="1" r="1" transform="translate(300.521 59)" fill="#fff"/>
  </g>
</svg>
