<svg xmlns="http://www.w3.org/2000/svg" width="60" height="60" viewBox="0 0 60 60">
  <g id="ic_noti_alarm" transform="translate(-1469 -119)">
    <circle id="타원_169" data-name="타원 169" cx="30" cy="30" r="30" transform="translate(1469 119)" fill="#ff6188"/>
    <g id="그룹_74" data-name="그룹 74" transform="translate(1488.266 135.8)">
      <path id="패스_727" data-name="패스 727" d="M403.681,220h-1.894c-3.487,0-6.63,2.511-6.63,6v4.736l-2.753,3.3a2.026,2.026,0,0,0-.4,1.116v2.526a.632.632,0,0,0,.631.631h20.2a.632.632,0,0,0,.631-.631v-2.526a2.026,2.026,0,0,0-.4-1.116l-2.753-3.3V226c0-3.487-3.143-6-6.63-6Z" transform="translate(-392 -216.687)" fill="#fff"/>
      <path id="사각형_113" data-name="사각형 113" d="M2,0H2A2,2,0,0,1,4,2V4A0,0,0,0,1,4,4H0A0,0,0,0,1,0,4V2A2,2,0,0,1,2,0Z" transform="translate(8.734)" fill="#fff" opacity="0.51"/>
      <path id="빼기_12" data-name="빼기 12" d="M3,4A3,3,0,0,1,.171,0H5.829A3,3,0,0,1,3,4Z" transform="translate(7.734 21)" fill="#fff" opacity="0.57"/>
    </g>
  </g>
</svg>
