<svg xmlns="http://www.w3.org/2000/svg" width="28" height="28" viewBox="0 0 28 28">
  <g id="ic_toxicgas" transform="translate(-185 -613)">
    <g id="타원_14" data-name="타원 14" transform="translate(185 613)" fill="#50cd89" stroke="#159d53" stroke-width="1">
      <circle cx="14" cy="14" r="14" stroke="none"/>
      <circle cx="14" cy="14" r="13.5" fill="none"/>
    </g>
    <path id="빼기_6" data-name="빼기 6" d="M-3379.389-2924.961c-.114,0-.323-.012-.589-.035a6.005,6.005,0,0,0-4.521-2.053,6,6,0,0,0-4.547,2.083c-.077,0-.136.006-.182.006A1.922,1.922,0,0,1-3391-2927a2.3,2.3,0,0,1,.176-.888,5.483,5.483,0,0,1-.176-1.42,6.7,6.7,0,0,1,6.691-6.69,6.7,6.7,0,0,1,6.691,6.69,5.463,5.463,0,0,1-.177,1.42,2.272,2.272,0,0,1,.177.888A1.922,1.922,0,0,1-3379.389-2924.961Zm-1.854-5.269a1.564,1.564,0,0,0-1.562,1.563,1.563,1.563,0,0,0,1.562,1.562,1.564,1.564,0,0,0,1.563-1.562A1.564,1.564,0,0,0-3381.243-2930.23Zm-6.015,0a1.564,1.564,0,0,0-1.562,1.563,1.564,1.564,0,0,0,1.563,1.562,1.564,1.564,0,0,0,1.562-1.562A1.564,1.564,0,0,0-3387.258-2930.23Z" transform="translate(3583.5 3552.546)" fill="#fff"/>
    <path id="합치기_9" data-name="합치기 9" d="M-3389.559-2927.276l-1.407-5.25a1,1,0,0,1,.707-1.225l1.26-.338a1,1,0,0,1,1.225.707l.3,1.1,1.481-.369a4.006,4.006,0,0,1,3.947-3.351,4.006,4.006,0,0,1,3.951,3.371l1.4.349.3-1.1a1,1,0,0,1,1.225-.707l1.26.338a1,1,0,0,1,.707,1.225l-1.407,5.25a1,1,0,0,1-.965.741,1.011,1.011,0,0,1-.26-.034l-1.26-.338a1,1,0,0,1-.707-1.225l.256-.955-1.423-.355a3.994,3.994,0,0,1-3.073,1.442,3.993,3.993,0,0,1-3.085-1.458l-1.487.371.256.956a1,1,0,0,1-.707,1.224l-1.26.338a1.034,1.034,0,0,1-.259.034A1,1,0,0,1-3389.559-2927.276Zm6.709-3.124a.8.8,0,0,0,.8.8.8.8,0,0,0,.8-.8.8.8,0,0,0-.8-.8A.8.8,0,0,0-3382.85-2930.4Zm1.6-1.6a.8.8,0,0,0,.8.8.8.8,0,0,0,.8-.8.8.8,0,0,0-.8-.8A.8.8,0,0,0-3381.25-2932Zm-3.2,0a.8.8,0,0,0,.8.8.8.8,0,0,0,.8-.8.8.8,0,0,0-.8-.8A.8.8,0,0,0-3384.45-2932Zm1.6-1.6a.8.8,0,0,0,.8.8.8.8,0,0,0,.8-.8.8.8,0,0,0-.8-.8A.8.8,0,0,0-3382.85-2933.6Z" transform="translate(3581.051 3563)" fill="#fff" opacity="0.7"/>
  </g>
</svg>
