<svg xmlns="http://www.w3.org/2000/svg" width="150" height="80" viewBox="0 0 150 80">
  <g id="ic_widget_01" transform="translate(-1376 -470)">
    <rect id="사각형_188" data-name="사각형 188" width="150" height="80" transform="translate(1376 470)" fill="none"/>
    <g id="그룹_1195" data-name="그룹 1195" transform="translate(-2 -4)">
      <g id="사각형_183" data-name="사각형 183" transform="translate(1393 474)" fill="#fff" stroke="#98a0c0" stroke-width="2">
        <rect width="120" height="80" stroke="none"/>
        <rect x="1" y="1" width="118" height="78" fill="none"/>
      </g>
      <g id="사각형_184" data-name="사각형 184" transform="translate(1423 474)" fill="none" stroke="#98a0c0" stroke-width="2">
        <rect width="41" height="37" stroke="none"/>
        <rect x="1" y="1" width="39" height="35" fill="none"/>
      </g>
      <g id="사각형_185" data-name="사각형 185" transform="translate(1462.177 474)" fill="none" stroke="#98a0c0" stroke-width="2">
        <rect width="22" height="36.885" stroke="none"/>
        <rect x="1" y="1" width="20" height="34.885" fill="none"/>
      </g>
      <rect id="사각형_187" data-name="사각형 187" width="8" height="7" transform="translate(1469.488 505.565)" fill="#fff"/>
      <rect id="사각형_241" data-name="사각형 241" width="8" height="7" transform="translate(1427.488 505.565)" fill="#fff"/>
      <g id="그룹_1194" data-name="그룹 1194" transform="translate(1399 481)">
        <circle id="타원_145" data-name="타원 145" cx="3.5" cy="3.5" r="3.5" transform="translate(1 -1)" fill="#98a0c0"/>
        <circle id="타원_146" data-name="타원 146" cx="3.5" cy="3.5" r="3.5" transform="translate(95 23)" fill="#98a0c0" opacity="0.5"/>
        <circle id="타원_147" data-name="타원 147" cx="3.5" cy="3.5" r="3.5" transform="translate(101)" fill="#98a0c0" opacity="0.5"/>
        <circle id="타원_148" data-name="타원 148" cx="3.5" cy="3.5" r="3.5" transform="translate(1 30)" fill="#98a0c0" opacity="0.5"/>
      </g>
    </g>
  </g>
</svg>
