<svg xmlns="http://www.w3.org/2000/svg" width="150" height="80" viewBox="0 0 150 80">
  <g id="ic_widget_13" transform="translate(-12.897 -18)">
    <rect id="사각형_245" data-name="사각형 245" width="150" height="80" transform="translate(12.897 18)" fill="none"/>
    <g id="정상" transform="translate(51.849 42)">
      <g id="사각형_246" data-name="사각형 246" transform="translate(-3.952 -4)" fill="#fff" stroke="#98a0c0" stroke-width="2">
        <rect width="80" height="40" stroke="none"/>
        <rect x="1" y="1" width="78" height="38" fill="none"/>
      </g>
      <rect id="사각형_203" data-name="사각형 203" width="28" height="10" rx="2" transform="translate(41.048 19)" fill="#98a0c0" opacity="0.5"/>
      <rect id="사각형_212" data-name="사각형 212" width="26" height="2" rx="1" transform="translate(43.048 14)" fill="#98a0c0" opacity="0.5"/>
      <path id="Icon_metro-sun4" data-name="Icon metro-sun4" d="M19.426,11.264a7.518,7.518,0,1,0,7.518,7.518,7.528,7.528,0,0,0-7.518-7.518Zm0-2.148A1.073,1.073,0,0,0,20.5,8.042V5.894a1.074,1.074,0,1,0-2.148,0V8.042A1.073,1.073,0,0,0,19.426,9.116Zm0,19.333a1.073,1.073,0,0,0-1.074,1.074v2.148a1.074,1.074,0,0,0,2.148,0V29.524A1.074,1.074,0,0,0,19.426,28.45Zm8.352-16.5L29.3,10.428a1.074,1.074,0,0,0-1.519-1.519l-1.519,1.519a1.074,1.074,0,1,0,1.519,1.519ZM11.071,25.62,9.552,27.139a1.074,1.074,0,0,0,1.519,1.519l1.519-1.519a1.074,1.074,0,1,0-1.519-1.519ZM9.759,18.783a1.074,1.074,0,0,0-1.074-1.074H6.537a1.074,1.074,0,1,0,0,2.148H8.685A1.073,1.073,0,0,0,9.759,18.783Zm22.555-1.074H30.166a1.074,1.074,0,1,0,0,2.148h2.148a1.074,1.074,0,1,0,0-2.148ZM11.069,11.947a1.074,1.074,0,1,0,1.519-1.519L11.069,8.909a1.074,1.074,0,0,0-1.519,1.519ZM27.78,25.617a1.074,1.074,0,1,0-1.519,1.519l1.519,1.519A1.074,1.074,0,0,0,29.3,27.136Z" transform="translate(-3.463 -1.82)" fill="#98a0c0"/>
    </g>
  </g>
</svg>
