<svg xmlns="http://www.w3.org/2000/svg" width="150" height="80" viewBox="0 0 150 80">
  <g id="ic_widget_12" transform="translate(18.836 55)">
    <rect id="사각형_256" data-name="사각형 256" width="150" height="80" transform="translate(-18.836 -55)" fill="none"/>
    <g id="그룹_1195" data-name="그룹 1195" transform="translate(20 3)">
      <g id="사각형_254" data-name="사각형 254" transform="translate(-23.836 -58)" fill="#fff" stroke="#98a0c0" stroke-width="2">
        <rect width="120" height="80" stroke="none"/>
        <rect x="1" y="1" width="118" height="78" fill="none"/>
      </g>
      <line id="선_7" data-name="선 7" x2="115" y2="75" transform="translate(-21.336 -55.5)" fill="none" stroke="#dfe1eb" stroke-linecap="round" stroke-width="1" stroke-dasharray="1 3"/>
      <line id="선_8" data-name="선 8" x1="115" y2="76" transform="translate(-21.336 -55.5)" fill="none" stroke="#dfe1eb" stroke-linecap="round" stroke-width="1" stroke-dasharray="1 3"/>
      <rect id="사각형_255" data-name="사각형 255" width="41" height="41" transform="translate(16.164 -38)" fill="#fff"/>
      <path id="Icon_material-photo-size-select-actual" data-name="Icon material-photo-size-select-actual" d="M26.394,4.5H3.989A2.677,2.677,0,0,0,1.5,6.989V24.415A2.5,2.5,0,0,0,3.989,26.9h22.4a2.677,2.677,0,0,0,2.489-2.489V6.989A2.677,2.677,0,0,0,26.394,4.5ZM6.479,21.925l4.356-5.6,3.112,3.746L18.3,14.457l5.6,7.468Z" transform="translate(20.664 -33.5)" fill="#98a0c0"/>
    </g>
  </g>
</svg>
