<svg xmlns="http://www.w3.org/2000/svg" width="150" height="80" viewBox="0 0 150 80">
  <g id="ic_widget_05" transform="translate(0.43)">
    <rect id="사각형_188" data-name="사각형 188" width="150" height="80" transform="translate(-0.43)" fill="none"/>
    <g id="그룹_1235" data-name="그룹 1235" transform="translate(2 -4)">
      <g id="사각형_183" data-name="사각형 183" transform="translate(32.57 4)" fill="#fff" stroke="#98a0c0" stroke-width="2">
        <rect width="80" height="80" stroke="none"/>
        <rect x="1" y="1" width="78" height="78" fill="none"/>
      </g>
      <rect id="사각형_189" data-name="사각형 189" width="76" height="12" transform="translate(34.571 6)" fill="#f6f8fe"/>
      <rect id="사각형_190" data-name="사각형 190" width="76" height="0.5" transform="translate(34.571 18)" fill="#98a0c0" opacity="0.4"/>
      <g id="그룹_1236" data-name="그룹 1236" transform="translate(-10 5)">
        <rect id="사각형_191" data-name="사각형 191" width="6" height="2.25" rx="1" transform="translate(50.571 19)" fill="#98a0c0"/>
        <rect id="사각형_327" data-name="사각형 327" width="6" height="2.25" rx="1" transform="translate(63.571 19)" fill="#98a0c0"/>
        <rect id="사각형_198" data-name="사각형 198" width="33.267" height="1.125" transform="translate(80.389 19.563)" fill="#98a0c0" opacity="0.5"/>
        <rect id="사각형_192" data-name="사각형 192" width="6" height="2.25" rx="1" transform="translate(50.571 28)" fill="#98a0c0" opacity="0.5"/>
        <rect id="사각형_328" data-name="사각형 328" width="6" height="2.25" rx="1" transform="translate(63.571 28)" fill="#98a0c0" opacity="0.5"/>
        <rect id="사각형_197" data-name="사각형 197" width="33.267" height="1.125" transform="translate(80.389 28.563)" fill="#98a0c0" opacity="0.5"/>
        <rect id="사각형_193" data-name="사각형 193" width="6" height="2.25" rx="1" transform="translate(50.571 37)" fill="#98a0c0" opacity="0.5"/>
        <rect id="사각형_329" data-name="사각형 329" width="6" height="2.25" rx="1" transform="translate(63.571 37)" fill="#98a0c0" opacity="0.5"/>
        <rect id="사각형_196" data-name="사각형 196" width="33.267" height="1.125" transform="translate(80.389 37.563)" fill="#98a0c0" opacity="0.5"/>
        <rect id="사각형_194" data-name="사각형 194" width="6" height="2.25" rx="1" transform="translate(50.571 46)" fill="#98a0c0" opacity="0.5"/>
        <rect id="사각형_330" data-name="사각형 330" width="6" height="2.25" rx="1" transform="translate(63.571 46)" fill="#98a0c0" opacity="0.5"/>
        <rect id="사각형_195" data-name="사각형 195" width="33.267" height="1.125" transform="translate(80.389 46.563)" fill="#98a0c0" opacity="0.5"/>
      </g>
    </g>
  </g>
</svg>
