<svg xmlns="http://www.w3.org/2000/svg" width="30" height="30" viewBox="0 0 30 30">
  <g id="ic_we_02" transform="translate(-82.542 -311.949)">
    <rect id="사각형_325" data-name="사각형 325" width="30" height="30" transform="translate(82.542 311.949)" fill="none"/>
    <g id="그룹_1316" data-name="그룹 1316" transform="translate(-3.989 -5.429)">
      <path id="패스_521" data-name="패스 521" d="M68.006,115.262H60.081a3.961,3.961,0,0,1-.521-.009.748.748,0,0,1-.72-.766.756.756,0,0,1,.663-.821,2.99,2.99,0,0,1,.635-.024c6.861,0,13.327,0,20.188,0a2.715,2.715,0,1,0-2.621-2.959c-.009.1-.007.194-.021.289a.806.806,0,1,1-1.609-.1,4.33,4.33,0,1,1,4.311,4.392C76.926,115.27,71.466,115.262,68.006,115.262Z" transform="translate(29.731 218.11)" fill="#949495" stroke="#949495" stroke-width="0.5"/>
      <path id="패스_783" data-name="패스 783" d="M74.006,115.262H72.081a3.961,3.961,0,0,1-.521-.009.748.748,0,0,1-.72-.766.756.756,0,0,1,.663-.821,2.99,2.99,0,0,1,.635-.024c6.861,0,2.327,0,9.188,0a2.715,2.715,0,1,0-2.621-2.959c-.009.1-.007.194-.021.289a.806.806,0,1,1-1.609-.1,4.33,4.33,0,1,1,4.311,4.392C77.926,115.27,77.466,115.262,74.006,115.262Z" transform="translate(17.731 213.777)" fill="#949495" stroke="#949495" stroke-width="0.5"/>
      <path id="패스_522" data-name="패스 522" d="M107.221,197.26c1.914,0,1.432-.02,3.347,0a4.23,4.23,0,1,1-4.25,4.465c-.021-.643.241-1,.75-1.031s.8.29.866.938a2.6,2.6,0,0,0,4.784,1.272,2.486,2.486,0,0,0,.1-2.645,2.536,2.536,0,0,0-2.379-1.382c-3.713,0-2.632,0-6.345,0-.193,0-.388.008-.58-.005a.741.741,0,0,1-.77-.774.749.749,0,0,1,.721-.826,7.091,7.091,0,0,1,.927-.015Z" transform="translate(-14.217 138.646)" fill="#b4b4b4" stroke="#b4b4b4" stroke-width="0.5"/>
    </g>
  </g>
</svg>
