<svg xmlns="http://www.w3.org/2000/svg" width="30" height="30" viewBox="0 0 30 30">
  <g id="ic_we_03" transform="translate(-82.542 -311.949)">
    <rect id="사각형_325" data-name="사각형 325" width="30" height="30" transform="translate(82.542 311.949)" fill="none"/>
    <path id="Icon_awesome-umbrella" data-name="Icon awesome-umbrella" d="M27.388,13.358A13.785,13.785,0,0,0,15.223,2.374V1.522a1.522,1.522,0,1,0-3.045,0v.852A13.8,13.8,0,0,0,.014,13.358c-.1.48.4,1.013.89.542.484-.512,1.943-.711,3.79-.436a5.274,5.274,0,0,1,3.755,2.2.5.5,0,0,0,.937,0c.961-1.684,2.136-2.833,4.315-2.833,2.783,0,4.2,2.624,4.315,2.833a.5.5,0,0,0,.937,0c1.4-2.461,6.511-2.852,7.545-1.76C26.988,14.376,27.492,13.839,27.388,13.358Z" transform="translate(83.542 314.773)" fill="#949495"/>
    <path id="Icon_awesome-umbrella-2" data-name="Icon awesome-umbrella" d="M12.179,15.353v5.2a.761.761,0,0,1-1.48.252,1.521,1.521,0,0,0-2.869,1.013,3.805,3.805,0,0,0,7.393-1.27v-5.2A2.336,2.336,0,0,0,13.7,14.7,2.18,2.18,0,0,0,12.179,15.353Z" transform="translate(83.542 314.773)" fill="#b4b4b4"/>
  </g>
</svg>
