<svg xmlns="http://www.w3.org/2000/svg" width="177" height="30" viewBox="0 0 177 30">
  <g id="hdc_logo" transform="translate(7 38.509)">
    <rect id="area" width="177" height="30" transform="translate(-7 -38.509)" fill="none"/>
    <g id="그룹_1337" data-name="그룹 1337" transform="translate(-1.75 -32.509)">
      <path id="패스_801" data-name="패스 801" d="M19.653-32.985H11.629v1.859h0a2.479,2.479,0,0,1,2.478,2.476v2.3a.585.585,0,0,1-.586.584h-7.4a.585.585,0,0,1-.586-.584v-2.3a2.482,2.482,0,0,1,2.48-2.476h0v-1.859H0v1.859H0A2.48,2.48,0,0,1,2.481-28.65v8.759A2.48,2.48,0,0,1,0-17.414H0v1.86H8.024v-1.86h0a2.481,2.481,0,0,1-2.48-2.477v-.586l0-1.716a.585.585,0,0,1,.584-.586h7.4a.587.587,0,0,1,.586.586v2.3a2.479,2.479,0,0,1-2.478,2.477h0v1.86h8.024v-1.86h0a2.479,2.479,0,0,1-2.478-2.477V-28.65a2.479,2.479,0,0,1,2.478-2.476h0Z" transform="translate(0 33.266)" fill="#ff3818"/>
      <path id="패스_802" data-name="패스 802" d="M88.443-30.7a5.78,5.78,0,0,1,5.4,3.614h1.861v-6.138H93.847a.772.772,0,0,1-.772.772.768.768,0,0,1-.262-.049l0,.005a9.4,9.4,0,0,0-4.316-1.013,8.917,8.917,0,0,0-9.125,9v.05a8.834,8.834,0,0,0,9.075,8.949c.171,0,.339,0,.507-.014.115-.005.23-.015.344-.025l.109-.01a8.883,8.883,0,0,0,6.245-3.476l-1.961-1.961a6.525,6.525,0,0,1-5.069,2.676v0l-.124,0a5.961,5.961,0,0,1-5.916-6.19v-.049A5.88,5.88,0,0,1,88.443-30.7" transform="translate(-36.733 33.508)" fill="#ff3818"/>
      <path id="패스_803" data-name="패스 803" d="M56.657-24.223a5.68,5.68,0,0,1-6.051,5.876H47.17V-30.2h3.436a5.72,5.72,0,0,1,6.051,5.926Zm-6.051-8.765-6.5,0H41.622v1.859h0a2.481,2.481,0,0,1,2.48,2.476v8.759a2.481,2.481,0,0,1-2.48,2.477h0v1.86h8.984c5.478,0,9.264-3.81,9.264-8.716v-.049c0-4.905-3.787-8.666-9.264-8.666" transform="translate(-19.264 33.268)" fill="#ff3818"/>
      <g id="그룹_1336" data-name="그룹 1336" transform="translate(65.529)">
        <path id="패스_804" data-name="패스 804" d="M230.264-12.693h-7.18v-1.965h-2.268v7.623h11.657v-7.623h-2.208Zm0,3.872h-7.18v-2.085h7.18Z" transform="translate(-167.728 24.784)" fill="#fff"/>
        <path id="패스_805" data-name="패스 805" d="M227.764-29.568h-2.9a4.363,4.363,0,0,0-.46-1.354,4.575,4.575,0,0,0-.843-1.115,5.242,5.242,0,0,0-1.518-.923,4.866,4.866,0,0,0-1.813-.341,4.9,4.9,0,0,0-1.806.341,5.206,5.206,0,0,0-1.526.923,4.5,4.5,0,0,0-1.052,1.436,4.163,4.163,0,0,0-.393,1.8,4.1,4.1,0,0,0,.393,1.786,4.288,4.288,0,0,0,1.052,1.405,4.977,4.977,0,0,0,1.526.943,4.9,4.9,0,0,0,1.806.339,4.865,4.865,0,0,0,1.813-.339,5.009,5.009,0,0,0,1.518-.943,3.81,3.81,0,0,0,.8-.984,4.185,4.185,0,0,0,.464-1.224h2.937v3.753h2.228v-9.09h-2.228Zm-5.215,1.837a2.758,2.758,0,0,1-.512.854,2.851,2.851,0,0,1-.821.57,2.439,2.439,0,0,1-1.024.212,2.376,2.376,0,0,1-1-.212,2.341,2.341,0,0,1-.783-.57,2.493,2.493,0,0,1-.522-.854,3.067,3.067,0,0,1-.18-1.055,3.079,3.079,0,0,1,.18-1.053,2.342,2.342,0,0,1,.543-.852,2.3,2.3,0,0,1,.792-.541,2.534,2.534,0,0,1,1.014-.2,2.451,2.451,0,0,1,1,.2,2.53,2.53,0,0,1,.8.541,2.756,2.756,0,0,1,.512.852,2.835,2.835,0,0,1,.19,1.053,2.825,2.825,0,0,1-.19,1.055" transform="translate(-165.247 33.412)" fill="#fff"/>
        <path id="패스_806" data-name="패스 806" d="M189.814-11.819h-2.246v6.1h11.878V-7.506h-9.632Z" transform="translate(-152.34 23.47)" fill="#fff"/>
        <path id="패스_807" data-name="패스 807" d="M207.008-33h-2.19v12.963h2.19V-27.5H209.5V-29.43h-2.488Z" transform="translate(-160.324 33.273)" fill="#fff"/>
        <path id="패스_808" data-name="패스 808" d="M186.05-25.52a7.716,7.716,0,0,0,.873-1.306,7.871,7.871,0,0,0,.872,1.306,9.914,9.914,0,0,0,1.113,1.144,11.46,11.46,0,0,0,1.287.972,9.984,9.984,0,0,0,1.32.733l1.01-1.508a8.237,8.237,0,0,1-1.61-.97,8.016,8.016,0,0,1-1.505-1.535,7.112,7.112,0,0,1-.945-1.856,6.806,6.806,0,0,1-.34-2.156v-1.837h-2.407V-30.7a6.672,6.672,0,0,1-.341,2.156,7.054,7.054,0,0,1-.942,1.856,7.947,7.947,0,0,1-1.507,1.535,8.168,8.168,0,0,1-1.607.97l1.006,1.508a9.832,9.832,0,0,0,1.325-.733,11.325,11.325,0,0,0,1.283-.972,9.291,9.291,0,0,0,1.113-1.144" transform="translate(-149.449 33.058)" fill="#fff"/>
        <path id="패스_809" data-name="패스 809" d="M165.08-27.519h-2.492v-5.518h-2.066V-22.1c-.453.08-.953.143-1.494.189s-1.01.071-1.415.071h-2.767v-9.049h3.53v-1.787h-5.717v12.622h4.654a13.758,13.758,0,0,0,1.616-.11c.608-.073,1.14-.15,1.594-.23v4.855h2.066v-9.992h2.492v9.992h2.065v-17.5H165.08Z" transform="translate(-136.183 33.29)" fill="#fff"/>
        <path id="패스_810" data-name="패스 810" d="M129.78-10.816h-2.208v5.56H139.53V-7.042H129.78Z" transform="translate(-124.572 23.006)" fill="#fff"/>
        <path id="패스_811" data-name="패스 811" d="M127-22.721a4.608,4.608,0,0,0,1.715-.324,4.721,4.721,0,0,0,1.449-.9c.059-.052.114-.109.169-.163H134.3v3.83h2.228v-12.98H134.3v3.931h-3.5a4.233,4.233,0,0,0-.624-.718c-.1-.09-.211-.176-.321-.257h2.184v-1.684H128.2v-1.526h-2.187v1.526h-4.021V-30.3h2.172c-.111.082-.216.168-.319.257a4.309,4.309,0,0,0-1,1.362,3.989,3.989,0,0,0-.371,1.706,3.917,3.917,0,0,0,.371,1.7,4.1,4.1,0,0,0,1,1.334,4.7,4.7,0,0,0,1.448.9,4.611,4.611,0,0,0,1.715.324m7.292-3.031h-2.944a3.979,3.979,0,0,0,.188-1.221,4.109,4.109,0,0,0-.067-.724H134.3Zm-9.668-1.2a2.862,2.862,0,0,1,.171-.989,2.181,2.181,0,0,1,.507-.8,2.245,2.245,0,0,1,.745-.51,2.437,2.437,0,0,1,.953-.188,2.434,2.434,0,0,1,.953.188,2.213,2.213,0,0,1,.743.51,2.186,2.186,0,0,1,.509.8,2.861,2.861,0,0,1,.169.989,2.869,2.869,0,0,1-.169.989,2.3,2.3,0,0,1-.49.8,2.173,2.173,0,0,1-.736.538,2.241,2.241,0,0,1-.942.2h-.075a2.274,2.274,0,0,1-.944-.2,2.192,2.192,0,0,1-.733-.538,2.275,2.275,0,0,1-.49-.8,2.87,2.87,0,0,1-.171-.989" transform="translate(-121.988 33.508)" fill="#fff"/>
        <path id="패스_812" data-name="패스 812" d="M245.663-32.368v1.787h4.253a13.747,13.747,0,0,1-.111,3.111,9.935,9.935,0,0,1-.832,2.729,9.886,9.886,0,0,1-1.614,2.366,12.306,12.306,0,0,1-1.978,1.708l.923,1.383a17.084,17.084,0,0,0,2.929-2.509,10.485,10.485,0,0,0,1.846-2.83,12.3,12.3,0,0,0,.895-3.42,30,30,0,0,0,.169-4.326Z" transform="translate(-179.097 32.981)" fill="#fff"/>
        <path id="패스_813" data-name="패스 813" d="M265.582-27.519h-2.143v-5.518h-2.069v17.5h2.069v-9.992h2.143v9.992h2.067v-17.5h-2.067Z" transform="translate(-186.497 33.29)" fill="#fff"/>
        <path id="패스_814" data-name="패스 814" d="M283.165-10.629h9.389v-4.815h-11.6v1.724h9.411v1.445h-9.411V-7.4h12.018V-9.164h-9.812Z" transform="translate(-195.564 25.148)" fill="#fff"/>
        <path id="패스_815" data-name="패스 815" d="M300.663-29.442v-3.6h-2.184v8.589h2.184V-27.52h2.469v-1.923Z" transform="translate(-203.672 33.29)" fill="#fff"/>
        <path id="패스_816" data-name="패스 816" d="M285.924-32.534h-2.206v2.2h-4.134v-2.2H277.4v7.915h8.526Zm-2.206,6.171h-4.134v-2.228h4.134Z" transform="translate(-193.915 33.057)" fill="#fff"/>
      </g>
    </g>
  </g>
</svg>
