<svg xmlns="http://www.w3.org/2000/svg" width="168" height="88" viewBox="0 0 168 88">
  <g id="logo_hdc_login" transform="translate(0 57.359)">
    <rect id="area" width="168" height="88" transform="translate(0 -57.359)" fill="none"/>
    <g id="그룹_1334" data-name="그룹 1334" transform="translate(0 -57.359)">
      <path id="패스_785" data-name="패스 785" d="M55.707-56.836H32.963v5.269h.009a7.028,7.028,0,0,1,7.022,7.018v6.528a1.656,1.656,0,0,1-1.659,1.653H17.371a1.655,1.655,0,0,1-1.659-1.653v-6.528a7.031,7.031,0,0,1,7.027-7.018h0v-5.269H0v5.269H.006a7.028,7.028,0,0,1,7.025,7.018v24.826A7.028,7.028,0,0,1,.006-12.7H0V-7.43H22.744V-12.7h0a7.032,7.032,0,0,1-7.027-7.021v-1.659l0-4.866a1.657,1.657,0,0,1,1.654-1.66H38.336a1.661,1.661,0,0,1,1.659,1.66v6.525A7.029,7.029,0,0,1,32.972-12.7h-.009V-7.43H55.707V-12.7h0a7.025,7.025,0,0,1-7.024-7.021V-44.549A7.025,7.025,0,0,1,55.7-51.567h0Z" transform="translate(0 57.634)" fill="#fff"/>
      <path id="패스_786" data-name="패스 786" d="M104.849-49.4A16.376,16.376,0,0,1,120.16-39.152h5.275v-17.4h-5.269a2.19,2.19,0,0,1-2.189,2.193,2.17,2.17,0,0,1-.741-.139l-.011.014a26.668,26.668,0,0,0-12.235-2.873c-15.157,0-25.866,11.629-25.866,25.513v.139c0,13.883,10.573,25.368,25.724,25.368q.726,0,1.436-.041c.328-.015.654-.041.974-.07.107-.008.208-.014.31-.024a25.207,25.207,0,0,0,17.7-9.854l-5.559-5.556A18.491,18.491,0,0,1,105.34-14.3v-.011c-.119,0-.231.011-.35.011-9.8,0-16.771-7.963-16.771-17.545v-.142c0-9.585,6.836-17.408,16.629-17.408" transform="translate(41.72 57.359)" fill="#fff"/>
      <path id="패스_787" data-name="패스 787" d="M84.111-32c0,9.674-6.777,16.656-17.151,16.656H57.219v-33.6H66.96c10.375,0,17.151,7.132,17.151,16.8ZM66.96-56.84l-18.433,0v0H41.5v5.269h0a7.033,7.033,0,0,1,7.03,7.018v24.826A7.035,7.035,0,0,1,41.5-12.7h0v5.271h7.032v0l18.433,0c15.525,0,26.26-10.8,26.26-24.7v-.141c0-13.9-10.735-24.562-26.26-24.562" transform="translate(21.88 57.632)" fill="#fff"/>
      <path id="패스_788" data-name="패스 788" d="M68.958-3.7H60.181V-6.1h-2.77V3.215H71.656V-6.1h-2.7Zm0,4.733H60.181V-1.515h8.777Z" transform="translate(30.271 84.386)" fill="#fff"/>
      <path id="패스_789" data-name="패스 789" d="M70.15-9.553h-3.54a5.363,5.363,0,0,0-.565-1.653,5.6,5.6,0,0,0-1.031-1.364A6.421,6.421,0,0,0,63.162-13.7a5.929,5.929,0,0,0-2.219-.417,5.927,5.927,0,0,0-2.205.417,6.372,6.372,0,0,0-1.865,1.126,5.539,5.539,0,0,0-1.287,1.755,5.14,5.14,0,0,0-.478,2.193,5.038,5.038,0,0,0,.478,2.182,5.241,5.241,0,0,0,1.287,1.718,6.069,6.069,0,0,0,1.865,1.152,5.927,5.927,0,0,0,2.205.417,5.929,5.929,0,0,0,2.219-.417,6.112,6.112,0,0,0,1.851-1.152,4.656,4.656,0,0,0,.981-1.2,5.3,5.3,0,0,0,.567-1.5H70.15v4.585h2.72V-13.939H70.15ZM63.775-7.308a3.36,3.36,0,0,1-.626,1.043,3.476,3.476,0,0,1-1,.7,3,3,0,0,1-1.252.258,2.908,2.908,0,0,1-1.223-.258,2.837,2.837,0,0,1-.958-.7,3,3,0,0,1-.638-1.043,3.739,3.739,0,0,1-.22-1.289,3.738,3.738,0,0,1,.22-1.284,2.824,2.824,0,0,1,.664-1.042,2.759,2.759,0,0,1,.967-.663,3.14,3.14,0,0,1,1.239-.246,3.018,3.018,0,0,1,1.223.246,3.07,3.07,0,0,1,.982.663,3.352,3.352,0,0,1,.626,1.042A3.475,3.475,0,0,1,64.007-8.6a3.476,3.476,0,0,1-.232,1.289" transform="translate(29.057 80.161)" fill="#fff"/>
      <path id="패스_790" data-name="패스 790" d="M45.867-4.88H43.12V2.573H57.634V.391H45.867Z" transform="translate(22.736 85.029)" fill="#fff"/>
      <path id="패스_791" data-name="패스 791" d="M53.211-13.984H50.537V1.858h2.674V-7.265H56.25V-9.621H53.211Z" transform="translate(26.647 80.229)" fill="#fff"/>
      <path id="패스_792" data-name="패스 792" d="M46.214-5.212a9.467,9.467,0,0,0,1.066-1.6,9.752,9.752,0,0,0,1.066,1.6,12.023,12.023,0,0,0,1.362,1.4,14.376,14.376,0,0,0,1.569,1.19,12.55,12.55,0,0,0,1.617.893l1.233-1.843A9.958,9.958,0,0,1,52.16-4.76a9.814,9.814,0,0,1-1.84-1.875A8.7,8.7,0,0,1,49.167-8.9a8.286,8.286,0,0,1-.415-2.635v-2.245H45.808v2.245A8.159,8.159,0,0,1,45.393-8.9a8.6,8.6,0,0,1-1.152,2.268A9.681,9.681,0,0,1,42.4-4.76a9.9,9.9,0,0,1-1.966,1.185l1.229,1.843a12.4,12.4,0,0,0,1.622-.893,14.509,14.509,0,0,0,1.567-1.19,11.65,11.65,0,0,0,1.361-1.4" transform="translate(21.32 80.335)" fill="#fff"/>
      <path id="패스_793" data-name="패스 793" d="M43.294-7.256H40.25V-14H37.724V-.635c-.553.1-1.164.174-1.827.231s-1.234.087-1.727.087H30.789V-11.375H35.1v-2.184H28.116V1.866H33.8a16.726,16.726,0,0,0,1.975-.137c.741-.089,1.393-.182,1.946-.281V7.381H40.25V-4.829h3.044V7.381H45.82V-14H43.294Z" transform="translate(14.825 80.221)" fill="#fff"/>
      <path id="패스_794" data-name="패스 794" d="M20.033-4.447h-2.7V2.344H31.947V.164H20.033Z" transform="translate(9.14 85.257)" fill="#fff"/>
      <path id="패스_795" data-name="패스 795" d="M21.063-1.02a5.647,5.647,0,0,0,2.1-.4,5.793,5.793,0,0,0,1.77-1.1c.073-.064.141-.131.206-.2h4.838V1.972H32.7V-13.894H29.974v4.806H25.693a5.082,5.082,0,0,0-.764-.877c-.124-.111-.258-.215-.391-.315h2.667v-2.059H22.521V-14.2H19.849v1.863H14.932v2.059h2.656c-.134.1-.264.2-.391.315A5.235,5.235,0,0,0,15.975-8.3a4.837,4.837,0,0,0-.455,2.086,4.749,4.749,0,0,0,.455,2.074A4.974,4.974,0,0,0,17.2-2.51a5.793,5.793,0,0,0,1.77,1.1,5.639,5.639,0,0,0,2.1.4m8.912-3.7h-3.6a4.85,4.85,0,0,0,.229-1.492,5.263,5.263,0,0,0-.081-.886h3.449ZM18.158-6.191A3.507,3.507,0,0,1,18.367-7.4a2.654,2.654,0,0,1,.622-.982A2.752,2.752,0,0,1,19.9-9a2.992,2.992,0,0,1,1.165-.229A2.992,2.992,0,0,1,22.228-9a2.72,2.72,0,0,1,.909.625,2.632,2.632,0,0,1,.62.982,3.435,3.435,0,0,1,.208,1.207,3.465,3.465,0,0,1-.208,1.21,2.815,2.815,0,0,1-.6.979,2.681,2.681,0,0,1-.9.658,2.769,2.769,0,0,1-1.153.241h-.092a2.805,2.805,0,0,1-1.153-.241A2.693,2.693,0,0,1,18.967-4a2.822,2.822,0,0,1-.6-.979,3.537,3.537,0,0,1-.209-1.21" transform="translate(7.873 80.114)" fill="#fff"/>
      <path id="패스_796" data-name="패스 796" d="M68.315-13.711v2.182h5.2a16.829,16.829,0,0,1-.136,3.8A12.1,12.1,0,0,1,72.36-4.392,12.115,12.115,0,0,1,70.388-1.5,14.937,14.937,0,0,1,67.969.587L69.1,2.28a21.011,21.011,0,0,0,3.58-3.067,12.884,12.884,0,0,0,2.254-3.459,15.023,15.023,0,0,0,1.094-4.179,37.154,37.154,0,0,0,.208-5.286Z" transform="translate(35.838 80.373)" fill="#fff"/>
      <path id="패스_797" data-name="패스 797" d="M79.99-7.256H77.369V-14H74.841V7.381h2.528V-4.829H79.99V7.381h2.526V-14H79.99Z" transform="translate(39.462 80.221)" fill="#fff"/>
      <path id="패스_798" data-name="패스 798" d="M85.959-.553H97.433V-6.438H83.261v2.106h11.5v1.769h-11.5V3.393H97.949V1.237H85.959Z" transform="translate(43.901 84.208)" fill="#fff"/>
      <path id="패스_799" data-name="패스 799" d="M93.463-9.6V-14H90.791V-3.5h2.671V-7.256h3.015V-9.6Z" transform="translate(47.872 80.22)" fill="#fff"/>
      <path id="패스_800" data-name="패스 800" d="M92.151-13.783h-2.7V-11.1H84.4v-2.686H81.732v9.672H92.151Zm-2.7,7.54H84.4V-8.965h5.051Z" transform="translate(43.095 80.335)" fill="#fff"/>
    </g>
  </g>
</svg>
