<svg xmlns="http://www.w3.org/2000/svg" width="24" height="29" viewBox="0 0 24 29">
  <g id="map_ic_cctv_s" transform="translate(-380 -480)">
    <g id="패스_819" data-name="패스 819" transform="translate(2473.03 5961.029)" fill="#3868d8">
      <path d="M -2081.02978515625 -5452.73779296875 L -2089.160400390625 -5460.8984375 C -2091.333740234375 -5463.07080078125 -2092.530029296875 -5465.95849609375 -2092.530029296875 -5469.0302734375 C -2092.530029296875 -5472.1015625 -2091.334228515625 -5474.9892578125 -2089.16259765625 -5477.16162109375 C -2086.989990234375 -5479.33349609375 -2084.101806640625 -5480.52978515625 -2081.030029296875 -5480.52978515625 C -2077.95849609375 -5480.52978515625 -2075.070556640625 -5479.33349609375 -2072.8984375 -5477.16162109375 C -2070.7265625 -5474.98876953125 -2069.5302734375 -5472.1005859375 -2069.5302734375 -5469.02880859375 C -2069.5302734375 -5465.95703125 -2070.7265625 -5463.0693359375 -2072.8984375 -5460.8974609375 L -2081.02978515625 -5452.73779296875 Z" stroke="none"/>
      <path d="M -2081.02978515625 -5453.4462890625 L -2073.251953125 -5461.2509765625 C -2071.174560546875 -5463.32861328125 -2070.0302734375 -5466.0908203125 -2070.0302734375 -5469.02880859375 C -2070.0302734375 -5471.96728515625 -2071.174560546875 -5474.72998046875 -2073.251953125 -5476.80810546875 C -2075.32958984375 -5478.8857421875 -2078.092041015625 -5480.02978515625 -2081.030029296875 -5480.02978515625 C -2083.96826171875 -5480.02978515625 -2086.73095703125 -5478.88525390625 -2088.808837890625 -5476.80810546875 C -2090.88623046875 -5474.73046875 -2092.030029296875 -5471.96826171875 -2092.030029296875 -5469.0302734375 C -2092.030029296875 -5466.09228515625 -2090.8857421875 -5463.330078125 -2088.80615234375 -5461.25146484375 L -2081.02978515625 -5453.4462890625 M -2081.02978515625 -5452.029296875 L -2089.5146484375 -5460.54541015625 C -2094.202392578125 -5465.2314453125 -2094.200927734375 -5472.8291015625 -2089.51611328125 -5477.51513671875 C -2084.82861328125 -5482.20166015625 -2077.2314453125 -5482.20166015625 -2072.544921875 -5477.51513671875 C -2067.85888671875 -5472.82763671875 -2067.85888671875 -5465.22998046875 -2072.544921875 -5460.5439453125 L -2081.02978515625 -5452.029296875 Z" stroke="none" fill="#000"/>
    </g>
    <path id="Icon_open-video" data-name="Icon open-video" d="M.875,0A.89.89,0,0,0,0,.9V8.1A.89.89,0,0,0,.875,9h7.75A.879.879,0,0,0,9.5,8.1V6.4l1.75,1.8H13V.8H11.25L9.5,2.6V.9A.879.879,0,0,0,8.625,0Z" transform="translate(386 488)" fill="#fff"/>
  </g>
</svg>
