<svg xmlns="http://www.w3.org/2000/svg" xmlns:xlink="http://www.w3.org/1999/xlink" width="120" height="120.655" viewBox="0 0 120 120.655">
  <defs>
    <linearGradient id="linear-gradient" y1="0.5" x2="1" y2="0.5" gradientUnits="objectBoundingBox">
      <stop offset="0" stop-color="#7b86ff"/>
      <stop offset="1" stop-color="#5dd3ff"/>
    </linearGradient>
    <filter id="패스_435" x="10.437" y="59.801" width="38.93" height="41.921" filterUnits="userSpaceOnUse">
      <feOffset input="SourceAlpha"/>
      <feGaussianBlur stdDeviation="3" result="blur"/>
      <feFlood flood-color="#fff"/>
      <feComposite operator="in" in2="blur"/>
      <feComposite in="SourceGraphic"/>
    </filter>
    <filter id="패스_436" x="46.314" y="66.774" width="50.89" height="53.881" filterUnits="userSpaceOnUse">
      <feOffset input="SourceAlpha"/>
      <feGaussianBlur stdDeviation="3" result="blur-2"/>
      <feFlood flood-color="#fff"/>
      <feComposite operator="in" in2="blur-2"/>
      <feComposite in="SourceGraphic"/>
    </filter>
    <linearGradient id="linear-gradient-3" x1="0" x2="1" xlink:href="#linear-gradient"/>
    <filter id="패스_437" x="32.859" y="14.95" width="35.94" height="35.94" filterUnits="userSpaceOnUse">
      <feOffset input="SourceAlpha"/>
      <feGaussianBlur stdDeviation="3" result="blur-3"/>
      <feFlood flood-color="#fff"/>
      <feComposite operator="in" in2="blur-3"/>
      <feComposite in="SourceGraphic"/>
    </filter>
    <linearGradient id="linear-gradient-4" x1="0" x2="1" xlink:href="#linear-gradient"/>
    <filter id="패스_438" x="74.723" y="48.902" width="35.94" height="35.94" filterUnits="userSpaceOnUse">
      <feOffset input="SourceAlpha"/>
      <feGaussianBlur stdDeviation="3" result="blur-4"/>
      <feFlood flood-color="#fff"/>
      <feComposite operator="in" in2="blur-4"/>
      <feComposite in="SourceGraphic"/>
    </filter>
    <linearGradient id="linear-gradient-5" x1="0.5" x2="0.5" y2="1" gradientUnits="objectBoundingBox">
      <stop offset="0" stop-color="#54ddff"/>
      <stop offset="1" stop-color="#5dd3ff" stop-opacity="0.6"/>
    </linearGradient>
    <filter id="패스_439" x="17.911" y="14.95" width="23.98" height="53.881" filterUnits="userSpaceOnUse">
      <feOffset input="SourceAlpha"/>
      <feGaussianBlur stdDeviation="3" result="blur-5"/>
      <feFlood flood-color="#fff"/>
      <feComposite operator="in" in2="blur-5"/>
      <feComposite in="SourceGraphic"/>
    </filter>
    <filter id="패스_440" x="80.702" y="14.95" width="23.98" height="44.911" filterUnits="userSpaceOnUse">
      <feOffset input="SourceAlpha"/>
      <feGaussianBlur stdDeviation="3" result="blur-6"/>
      <feFlood flood-color="#fff"/>
      <feComposite operator="in" in2="blur-6"/>
      <feComposite in="SourceGraphic"/>
    </filter>
    <filter id="패스_441" x="38.841" y="41.861" width="23.98" height="44.911" filterUnits="userSpaceOnUse">
      <feOffset input="SourceAlpha"/>
      <feGaussianBlur stdDeviation="3" result="blur-7"/>
      <feFlood flood-color="#fff"/>
      <feComposite operator="in" in2="blur-7"/>
      <feComposite in="SourceGraphic"/>
    </filter>
    <filter id="패스_442" x="59.771" y="0" width="23.98" height="74.811" filterUnits="userSpaceOnUse">
      <feOffset input="SourceAlpha"/>
      <feGaussianBlur stdDeviation="3" result="blur-8"/>
      <feFlood flood-color="#fff"/>
      <feComposite operator="in" in2="blur-8"/>
      <feComposite in="SourceGraphic"/>
    </filter>
  </defs>
  <g id="weather_05" transform="translate(-2276 -125.97)">
    <rect id="slice" width="120" height="120" transform="translate(2276 126)" fill="#fff" opacity="0"/>
    <g transform="matrix(1, 0, 0, 1, 2276, 125.97)" filter="url(#패스_435)">
      <path id="패스_435-2" data-name="패스 435" d="M536.949,23h0a1.2,1.2,0,0,1,1.181,1.22v2.371l1.588-1.636a.76.76,0,0,1,1.1,0h0a.822.822,0,0,1,0,1.133l-2.688,2.769v2.861a3.314,3.314,0,0,1,1.061.628l2.341-1.492.876-3.812a.776.776,0,0,1,.933-.6h0a.806.806,0,0,1,.577.963l-.52,2.255,1.958-1.253a1.174,1.174,0,0,1,1.633.4h0a1.252,1.252,0,0,1-.386,1.683l-1.961,1.25,2.192.532a.8.8,0,0,1,.577.963h0a.785.785,0,0,1-.933.6l-3.7-.9-2.392,1.522a3.456,3.456,0,0,1,.063.664,2.556,2.556,0,0,1-.021.374l2.35,1.5,3.7-.9a.782.782,0,0,1,.933.6h0a.806.806,0,0,1-.577.963l-2.192.529L546.6,39.43a1.249,1.249,0,0,1,.386,1.68h0a1.174,1.174,0,0,1-1.633.4l-1.958-1.25.52,2.255a.8.8,0,0,1-.577.96h0a.776.776,0,0,1-.933-.592l-.876-3.812-2.141-1.363a3.412,3.412,0,0,1-1.262.813v2.548l2.688,2.766a.822.822,0,0,1,0,1.133h0a.76.76,0,0,1-1.1,0l-1.588-1.636V45.7a1.2,1.2,0,0,1-1.181,1.22h0a1.2,1.2,0,0,1-1.181-1.22V43.329l-1.594,1.636a.757.757,0,0,1-1.1,0h0a.834.834,0,0,1,0-1.133l2.694-2.766V38.518a3.421,3.421,0,0,1-1.253-.8L532.4,39.069l-.876,3.812a.778.778,0,0,1-.933.592h0a.8.8,0,0,1-.58-.96l.523-2.255-1.959,1.25a1.177,1.177,0,0,1-1.635-.4h0a1.253,1.253,0,0,1,.389-1.68l1.962-1.253-2.192-.529a.8.8,0,0,1-.577-.963h0a.782.782,0,0,1,.933-.6l3.7.9,2.311-1.474c-.012-.129-.024-.263-.024-.4a3.5,3.5,0,0,1,.069-.688l-2.356-1.5-3.7.9a.785.785,0,0,1-.933-.6h0a.8.8,0,0,1,.577-.963l2.192-.532-1.962-1.25a1.256,1.256,0,0,1-.389-1.683h0a1.177,1.177,0,0,1,1.635-.4l1.959,1.253-.523-2.255a.805.805,0,0,1,.58-.963h0a.777.777,0,0,1,.933.6l.876,3.812,2.32,1.477a3.42,3.42,0,0,1,1.049-.613V28.858l-2.694-2.769a.834.834,0,0,1,0-1.133h0a.757.757,0,0,1,1.1,0l1.594,1.636V24.22A1.2,1.2,0,0,1,536.949,23Zm0,10.286a1.835,1.835,0,1,1-1.776,1.833,1.8,1.8,0,0,1,1.776-1.833Z" transform="translate(-507.06 45.8)" fill-rule="evenodd" opacity="0.8" fill="url(#linear-gradient)"/>
    </g>
    <g transform="matrix(1, 0, 0, 1, 2276, 125.97)" filter="url(#패스_436)">
      <path id="패스_436-2" data-name="패스 436" d="M554.917,25.332h0a1.845,1.845,0,0,1,1.857,1.827v3.564l2.5-2.452a1.22,1.22,0,0,1,1.719,0h0a1.177,1.177,0,0,1,0,1.692l-4.219,4.156v4.288a5.456,5.456,0,0,1,1.671.942l3.672-2.24,1.378-5.717a1.234,1.234,0,0,1,1.471-.891h0a1.207,1.207,0,0,1,.9,1.447l-.81,3.376,3.065-1.869a1.893,1.893,0,0,1,2.572.6h0a1.829,1.829,0,0,1-.613,2.524l-3.071,1.869,3.442.8a1.207,1.207,0,0,1,.906,1.444h0a1.232,1.232,0,0,1-1.471.891l-5.81-1.349-3.759,2.287a5.148,5.148,0,0,1,.1,1,3.488,3.488,0,0,1-.033.559l3.7,2.246,5.81-1.352a1.236,1.236,0,0,1,1.471.894h0a1.21,1.21,0,0,1-.906,1.444l-3.442.8,3.071,1.878A1.824,1.824,0,0,1,570.7,52.5h0a1.9,1.9,0,0,1-2.572.6l-3.065-1.875.81,3.382a1.2,1.2,0,0,1-.9,1.438h0a1.232,1.232,0,0,1-1.471-.891l-1.378-5.714-3.355-2.048a5.516,5.516,0,0,1-1.988,1.223v3.818l4.219,4.153a1.177,1.177,0,0,1,0,1.692h0a1.209,1.209,0,0,1-1.719,0l-2.5-2.446v3.555a1.843,1.843,0,0,1-1.857,1.827h0a1.845,1.845,0,0,1-1.86-1.827V55.831l-2.491,2.446a1.22,1.22,0,0,1-1.728,0h0a1.187,1.187,0,0,1,0-1.692l4.222-4.153V48.613a5.609,5.609,0,0,1-1.964-1.2l-3.319,2.03L546.4,55.152a1.226,1.226,0,0,1-1.471.891h0a1.2,1.2,0,0,1-.906-1.438l.813-3.382L541.767,53.1a1.9,1.9,0,0,1-2.571-.6h0a1.823,1.823,0,0,1,.61-2.521l3.071-1.878-3.442-.8a1.205,1.205,0,0,1-.9-1.444h0A1.235,1.235,0,0,1,540,44.968l5.81,1.352,3.633-2.21a5.027,5.027,0,0,1-.036-.6,5.14,5.14,0,0,1,.1-1.035l-3.7-2.252L540,41.577a1.231,1.231,0,0,1-1.471-.891h0a1.2,1.2,0,0,1,.9-1.444l3.442-.8-3.071-1.869a1.828,1.828,0,0,1-.61-2.524h0a1.888,1.888,0,0,1,2.571-.6l3.065,1.869-.813-3.376a1.209,1.209,0,0,1,.906-1.447h0a1.228,1.228,0,0,1,1.471.891l1.378,5.717,3.639,2.222a5.471,5.471,0,0,1,1.645-.924V34.12l-4.222-4.156a1.187,1.187,0,0,1,0-1.692h0a1.231,1.231,0,0,1,1.728,0l2.491,2.452V27.159a1.847,1.847,0,0,1,1.86-1.827Zm0,15.423a2.756,2.756,0,1,1-2.79,2.76,2.775,2.775,0,0,1,2.79-2.76Z" transform="translate(-483.19 50.44)" fill-rule="evenodd" fill="url(#linear-gradient)"/>
    </g>
    <g transform="matrix(1, 0, 0, 1, 2276, 125.97)" filter="url(#패스_437)">
      <path id="패스_437-2" data-name="패스 437" d="M551.876,14.755a1.278,1.278,0,0,0-1.627-.864l-1.271.428.126-.727a1.351,1.351,0,0,0-1.047-1.567,1.3,1.3,0,0,0-1.5,1.094l-.368,2.147-1.926.652V13.8l1.839-1.026a1.382,1.382,0,0,0,.532-1.827,1.264,1.264,0,0,0-1.749-.553l-.622.347V9.349a1.3,1.3,0,1,0-2.592,0v1.393l-.622-.347a1.264,1.264,0,0,0-1.749.553,1.385,1.385,0,0,0,.532,1.827l1.839,1.026v2.117l-1.926-.652-.365-2.147a1.3,1.3,0,0,0-1.5-1.094,1.348,1.348,0,0,0-1.05,1.567l.123.727-1.268-.428a1.282,1.282,0,0,0-1.627.864,1.363,1.363,0,0,0,.828,1.7l1.274.431-.508.511a1.384,1.384,0,0,0-.039,1.908,1.252,1.252,0,0,0,1.827.033l1.5-1.507,1.928.652L539.685,20.2l-2.066-.3a1.3,1.3,0,0,0-1.453,1.151,1.332,1.332,0,0,0,1.1,1.522l.706.1-.789,1.127a1.4,1.4,0,0,0,.284,1.887,1.254,1.254,0,0,0,.759.254,1.283,1.283,0,0,0,1.05-.556l.783-1.124.311.664a1.288,1.288,0,0,0,1.16.762,1.32,1.32,0,0,0,.565-.138,1.372,1.372,0,0,0,.6-1.8l-.909-1.961,1.19-1.713,1.2,1.713-.912,1.961a1.37,1.37,0,0,0,.6,1.8,1.248,1.248,0,0,0,.562.138,1.285,1.285,0,0,0,1.16-.762l.314-.664.783,1.124a1.27,1.27,0,0,0,1.046.556,1.255,1.255,0,0,0,.76-.254,1.389,1.389,0,0,0,.281-1.887l-.783-1.127.7-.1a1.338,1.338,0,0,0,1.1-1.522A1.3,1.3,0,0,0,548.32,19.9l-2.066.3-1.193-1.716,1.929-.652,1.507,1.507a1.248,1.248,0,0,0,1.824-.033,1.384,1.384,0,0,0-.036-1.908l-.511-.511,1.271-.431a1.364,1.364,0,0,0,.831-1.7" transform="translate(-492.14 15.95)" opacity="0.7" fill="url(#linear-gradient-3)"/>
    </g>
    <g transform="matrix(1, 0, 0, 1, 2276, 125.97)" filter="url(#패스_438)">
      <path id="패스_438-2" data-name="패스 438" d="M565.876,26.107a1.28,1.28,0,0,0-1.627-.864l-1.271.431.125-.73a1.348,1.348,0,0,0-1.046-1.564,1.3,1.3,0,0,0-1.5,1.091l-.368,2.147-1.926.655v-2.12l1.839-1.026a1.382,1.382,0,0,0,.532-1.827,1.267,1.267,0,0,0-1.749-.553l-.622.347V20.7a1.3,1.3,0,1,0-2.592,0v1.393l-.622-.347a1.266,1.266,0,0,0-1.749.553,1.384,1.384,0,0,0,.532,1.827l1.839,1.026v2.12l-1.926-.655-.365-2.147a1.3,1.3,0,0,0-1.5-1.091,1.346,1.346,0,0,0-1.05,1.564l.123.73-1.268-.431a1.282,1.282,0,0,0-1.627.864,1.361,1.361,0,0,0,.828,1.7l1.274.431-.508.511a1.384,1.384,0,0,0-.039,1.908,1.249,1.249,0,0,0,1.827.036l1.5-1.51,1.929.655-1.193,1.713-2.066-.3a1.3,1.3,0,0,0-1.453,1.151,1.335,1.335,0,0,0,1.1,1.525l.706.1-.789,1.13a1.391,1.391,0,0,0,.284,1.884,1.258,1.258,0,0,0,.76.257,1.278,1.278,0,0,0,1.049-.559l.784-1.124.311.667a1.263,1.263,0,0,0,1.725.625,1.374,1.374,0,0,0,.6-1.806l-.909-1.961,1.19-1.71,1.2,1.71-.912,1.961a1.373,1.373,0,0,0,.6,1.806,1.245,1.245,0,0,0,.562.135,1.282,1.282,0,0,0,1.16-.759l.314-.667.783,1.124a1.256,1.256,0,0,0,1.806.3,1.385,1.385,0,0,0,.281-1.884l-.783-1.13.7-.1a1.341,1.341,0,0,0,1.1-1.525,1.305,1.305,0,0,0-1.456-1.151l-2.066.3-1.193-1.713,1.928-.655,1.507,1.51a1.245,1.245,0,0,0,1.824-.036,1.384,1.384,0,0,0-.036-1.908l-.511-.511,1.271-.431a1.363,1.363,0,0,0,.831-1.7" transform="translate(-464.28 38.55)" opacity="0.7" fill="url(#linear-gradient-4)"/>
    </g>
    <g transform="matrix(1, 0, 0, 1, 2276, 125.97)" filter="url(#패스_439)">
      <path id="패스_439-2" data-name="패스 439" d="M534.98,40.891a2.989,2.989,0,0,1-2.99,2.99h0a2.989,2.989,0,0,1-2.99-2.99V10.99A2.989,2.989,0,0,1,531.99,8h0a2.989,2.989,0,0,1,2.99,2.99Z" transform="translate(-502.09 15.95)" fill="url(#linear-gradient-5)"/>
    </g>
    <g transform="matrix(1, 0, 0, 1, 2276, 125.97)" filter="url(#패스_440)">
      <path id="패스_440-2" data-name="패스 440" d="M555.98,31.921a2.989,2.989,0,0,1-2.99,2.99h0a2.989,2.989,0,0,1-2.99-2.99V10.99A2.989,2.989,0,0,1,552.99,8h0a2.989,2.989,0,0,1,2.99,2.99Z" transform="translate(-460.3 15.95)" fill="url(#linear-gradient-5)"/>
    </g>
    <g transform="matrix(1, 0, 0, 1, 2276, 125.97)" filter="url(#패스_441)">
      <path id="패스_441-2" data-name="패스 441" d="M541.98,40.921a2.989,2.989,0,0,1-2.99,2.99h0a2.989,2.989,0,0,1-2.99-2.99V19.99A2.989,2.989,0,0,1,538.99,17h0a2.989,2.989,0,0,1,2.99,2.99Z" transform="translate(-488.16 33.86)" fill="url(#linear-gradient-5)"/>
    </g>
    <g transform="matrix(1, 0, 0, 1, 2276, 125.97)" filter="url(#패스_442)">
      <path id="패스_442-2" data-name="패스 442" d="M548.98,56.821a2.989,2.989,0,0,1-2.99,2.99h0a2.989,2.989,0,0,1-2.99-2.99V5.99A2.989,2.989,0,0,1,545.99,3h0a2.989,2.989,0,0,1,2.99,2.99Z" transform="translate(-474.23 6)" fill="url(#linear-gradient-5)"/>
    </g>
  </g>
</svg>
