<svg xmlns="http://www.w3.org/2000/svg" xmlns:xlink="http://www.w3.org/1999/xlink" width="120" height="120" viewBox="0 0 120 120">
  <defs>
    <linearGradient id="linear-gradient" x1="0.5" y1="1" x2="0.5" gradientUnits="objectBoundingBox">
      <stop offset="0" stop-color="#7b86ff"/>
      <stop offset="1" stop-color="#5dd3ff"/>
    </linearGradient>
    <filter id="패스_430" x="2.485" y="65.864" width="32.097" height="32.098" filterUnits="userSpaceOnUse">
      <feOffset input="SourceAlpha"/>
      <feGaussianBlur stdDeviation="3" result="blur"/>
      <feFlood flood-color="#fff"/>
      <feComposite operator="in" in2="blur"/>
      <feComposite in="SourceGraphic"/>
    </filter>
    <linearGradient id="linear-gradient-2" x1="0.5" y1="1" x2="0.5" xlink:href="#linear-gradient"/>
    <filter id="패스_431" x="1.415" y="0.669" width="77.894" height="83.88" filterUnits="userSpaceOnUse">
      <feOffset input="SourceAlpha"/>
      <feGaussianBlur stdDeviation="3" result="blur-2"/>
      <feFlood flood-color="#fff"/>
      <feComposite operator="in" in2="blur-2"/>
      <feComposite in="SourceGraphic"/>
    </filter>
    <filter id="패스_432" x="59.878" y="50.232" width="59.922" height="65.913" filterUnits="userSpaceOnUse">
      <feOffset input="SourceAlpha"/>
      <feGaussianBlur stdDeviation="3" result="blur-3"/>
      <feFlood flood-color="#fff"/>
      <feComposite operator="in" in2="blur-3"/>
      <feComposite in="SourceGraphic"/>
    </filter>
    <filter id="패스_433" x="30.269" y="75.842" width="38.962" height="41.956" filterUnits="userSpaceOnUse">
      <feOffset input="SourceAlpha"/>
      <feGaussianBlur stdDeviation="3" result="blur-4"/>
      <feFlood flood-color="#fff"/>
      <feComposite operator="in" in2="blur-4"/>
      <feComposite in="SourceGraphic"/>
    </filter>
    <filter id="패스_434" x="68.861" y="18.167" width="41.956" height="41.956" filterUnits="userSpaceOnUse">
      <feOffset input="SourceAlpha"/>
      <feGaussianBlur stdDeviation="3" result="blur-5"/>
      <feFlood flood-color="#fff"/>
      <feComposite operator="in" in2="blur-5"/>
      <feComposite in="SourceGraphic"/>
    </filter>
  </defs>
  <g id="weather_06" transform="translate(-2343 -126)">
    <rect id="slice" width="120" height="120" transform="translate(2343 126)" fill="#fff" opacity="0"/>
    <g transform="matrix(1, 0, 0, 1, 2343, 126)" filter="url(#패스_430)">
      <path id="패스_430-2" data-name="패스 430" d="M497.882,30.309a1,1,0,0,0-1.276-.683l-1,.341.1-.575a1.059,1.059,0,0,0-.827-1.228,1.022,1.022,0,0,0-1.177.856l-.287,1.686-1.518.515V29.558l1.449-.806a1.085,1.085,0,0,0,.416-1.434,1,1,0,0,0-1.378-.437l-.488.275v-1.1a1.015,1.015,0,1,0-2.027,0v1.1l-.494-.275a.994.994,0,0,0-1.375.437,1.085,1.085,0,0,0,.416,1.434l1.452.806v1.665l-1.518-.515-.29-1.686a1.021,1.021,0,0,0-1.177-.856,1.057,1.057,0,0,0-.823,1.228l.1.575-1-.341a1.006,1.006,0,0,0-1.276.683,1.071,1.071,0,0,0,.647,1.336l1,.338-.4.4a1.1,1.1,0,0,0-.03,1.5.986.986,0,0,0,1.437.03l1.183-1.189,1.518.515-.94,1.348-1.626-.237a1.023,1.023,0,0,0-1.144.9,1.054,1.054,0,0,0,.862,1.195l.557.081-.617.883a1.09,1.09,0,0,0,.221,1.482.988.988,0,0,0,.6.2,1.009,1.009,0,0,0,.823-.434l.614-.886.243.524a.992.992,0,0,0,1.359.488,1.08,1.08,0,0,0,.467-1.416l-.716-1.539.934-1.348.94,1.348-.716,1.539a1.079,1.079,0,0,0,.47,1.416.993.993,0,0,0,.44.108,1.018,1.018,0,0,0,.916-.6l.243-.524.617.886a1,1,0,0,0,.823.434.979.979,0,0,0,.6-.2,1.094,1.094,0,0,0,.225-1.482l-.617-.883.551-.081a1.053,1.053,0,0,0,.868-1.195,1.026,1.026,0,0,0-1.147-.9l-1.626.237-.94-1.348,1.518-.515,1.183,1.189a.986.986,0,0,0,1.437-.03,1.094,1.094,0,0,0-.027-1.5l-.4-.4,1-.338a1.07,1.07,0,0,0,.65-1.336" transform="translate(-472.35 49.86)" opacity="0.8" fill="url(#linear-gradient)"/>
    </g>
    <g transform="matrix(1, 0, 0, 1, 2343, 126)" filter="url(#패스_431)">
      <path id="패스_431-2" data-name="패스 431" d="M513.378,3.229h0a3.381,3.381,0,0,1,3.381,3.363V13.12l4.543-4.5a2.236,2.236,0,0,1,3.141,0h0a2.192,2.192,0,0,1,0,3.114l-7.684,7.627v7.879a9.787,9.787,0,0,1,3.039,1.731l6.7-4.112L529,14.357a2.231,2.231,0,0,1,2.668-1.635h0a2.206,2.206,0,0,1,1.65,2.65l-1.473,6.208,5.6-3.438a3.422,3.422,0,0,1,4.666,1.093h0a3.349,3.349,0,0,1-1.1,4.63l-5.6,3.441,6.262,1.461a2.207,2.207,0,0,1,1.65,2.653v0a2.232,2.232,0,0,1-2.674,1.635l-10.571-2.479-6.834,4.192A10.226,10.226,0,0,1,523.4,36.6c0,.353-.021.7-.054,1.036l6.72,4.121,10.571-2.479a2.232,2.232,0,0,1,2.674,1.638h0a2.207,2.207,0,0,1-1.65,2.653L535.4,45.033l5.6,3.441a3.346,3.346,0,0,1,1.1,4.627h0a3.417,3.417,0,0,1-4.666,1.093l-5.6-3.435,1.473,6.208a2.2,2.2,0,0,1-1.65,2.647h0A2.226,2.226,0,0,1,529,57.978l-2.495-10.5-6.13-3.758a10.033,10.033,0,0,1-3.614,2.243V52.98l7.684,7.627a2.192,2.192,0,0,1,0,3.114h0a2.236,2.236,0,0,1-3.141,0l-4.543-4.5v6.528a3.381,3.381,0,0,1-3.381,3.363h0a3.386,3.386,0,0,1-3.393-3.363V59.218l-4.552,4.5a2.225,2.225,0,0,1-3.132,0h0a2.2,2.2,0,0,1,0-3.114l7.687-7.627V45.967a10.015,10.015,0,0,1-3.573-2.2l-6.067,3.719-2.494,10.5a2.232,2.232,0,0,1-2.671,1.635h0a2.205,2.205,0,0,1-1.653-2.647l1.479-6.208-5.6,3.435a3.412,3.412,0,0,1-4.662-1.093h0a3.348,3.348,0,0,1,1.1-4.627l5.6-3.441-6.262-1.461a2.207,2.207,0,0,1-1.65-2.653h0a2.232,2.232,0,0,1,2.674-1.638L496.78,41.76l6.63-4.064a9.3,9.3,0,0,1-.066-1.093,9.95,9.95,0,0,1,.186-1.9l-6.75-4.129-10.568,2.479a2.232,2.232,0,0,1-2.674-1.635v0a2.207,2.207,0,0,1,1.65-2.653l6.262-1.461-5.6-3.441a3.351,3.351,0,0,1-1.1-4.63h0a3.418,3.418,0,0,1,4.662-1.093l5.6,3.438-1.479-6.208a2.21,2.21,0,0,1,1.653-2.65h0a2.237,2.237,0,0,1,2.671,1.635l2.494,10.5,6.645,4.073a10.075,10.075,0,0,1,2.995-1.692V19.358L502.3,11.731a2.2,2.2,0,0,1,0-3.114h0a2.225,2.225,0,0,1,3.132,0l4.552,4.5V6.592a3.386,3.386,0,0,1,3.393-3.363Zm0,28.325a5.047,5.047,0,1,1-5.085,5.049,5.065,5.065,0,0,1,5.085-5.049Z" transform="translate(-473.06 6.44)" fill-rule="evenodd" fill="url(#linear-gradient-2)"/>
    </g>
    <g transform="matrix(1, 0, 0, 1, 2343, 126)" filter="url(#패스_432)">
      <path id="패스_432-2" data-name="패스 432" d="M523.932,19.78h0a2.413,2.413,0,0,1,2.363,2.447v4.749l3.177-3.276a1.527,1.527,0,0,1,2.207,0h0a1.643,1.643,0,0,1,0,2.267L526.3,31.513v5.732a6.754,6.754,0,0,1,2.129,1.255l4.69-2.989,1.755-7.639a1.551,1.551,0,0,1,1.863-1.186h0a1.6,1.6,0,0,1,1.156,1.928l-1.033,4.513,3.914-2.5a2.355,2.355,0,0,1,3.273.8h0a2.5,2.5,0,0,1-.776,3.369l-3.923,2.5,4.384,1.06a1.613,1.613,0,0,1,1.156,1.934h0a1.562,1.562,0,0,1-1.869,1.189l-7.4-1.8-4.788,3.045a7.508,7.508,0,0,1,.12,1.336,5.551,5.551,0,0,1-.042.749l4.71,3,7.4-1.806a1.566,1.566,0,0,1,1.869,1.192h0a1.613,1.613,0,0,1-1.156,1.934l-4.384,1.06,3.923,2.5a2.5,2.5,0,0,1,.776,3.369h0a2.354,2.354,0,0,1-3.273.794l-3.914-2.5,1.033,4.516a1.6,1.6,0,0,1-1.156,1.925h0a1.549,1.549,0,0,1-1.863-1.189l-1.755-7.636-4.291-2.731A6.77,6.77,0,0,1,526.3,50.86v5.1l5.384,5.546a1.646,1.646,0,0,1,0,2.27h0a1.527,1.527,0,0,1-2.207,0L526.3,60.5v4.749a2.411,2.411,0,0,1-2.363,2.444h0a2.417,2.417,0,0,1-2.375-2.444V60.5l-3.183,3.276a1.523,1.523,0,0,1-2.2,0h0a1.664,1.664,0,0,1,0-2.27l5.39-5.546v-5.1a7.01,7.01,0,0,1-2.5-1.6l-4.243,2.7L513.056,59.6a1.553,1.553,0,0,1-1.866,1.189h0a1.6,1.6,0,0,1-1.159-1.925l1.039-4.516-3.917,2.5a2.349,2.349,0,0,1-3.27-.794h0a2.5,2.5,0,0,1,.776-3.369l3.923-2.5-4.384-1.06a1.613,1.613,0,0,1-1.156-1.934h0A1.565,1.565,0,0,1,504.911,46l7.4,1.806,4.633-2.956c-.024-.258-.045-.524-.045-.794a7.515,7.515,0,0,1,.129-1.38l-4.716-3-7.4,1.8a1.561,1.561,0,0,1-1.869-1.189h0a1.613,1.613,0,0,1,1.156-1.934l4.384-1.06-3.923-2.5a2.5,2.5,0,0,1-.776-3.369h0a2.35,2.35,0,0,1,3.27-.8l3.917,2.5-1.039-4.513a1.609,1.609,0,0,1,1.159-1.928h0a1.556,1.556,0,0,1,1.866,1.186l1.755,7.639,4.648,2.962a6.972,6.972,0,0,1,2.1-1.228V31.513l-5.39-5.546a1.661,1.661,0,0,1,0-2.267h0a1.523,1.523,0,0,1,2.2,0l3.183,3.276V22.227a2.419,2.419,0,0,1,2.375-2.447Zm0,20.6a3.675,3.675,0,1,1-3.557,3.674,3.616,3.616,0,0,1,3.557-3.674Z" transform="translate(-434.12 39.45)" fill-rule="evenodd" fill="url(#linear-gradient-2)"/>
    </g>
    <g transform="matrix(1, 0, 0, 1, 2343, 126)" filter="url(#패스_433)">
      <path id="패스_433-2" data-name="패스 433" d="M503.578,28.332h0a1.2,1.2,0,0,1,1.183,1.222v2.375l1.59-1.638a.762.762,0,0,1,1.1,0h0a.823.823,0,0,1,0,1.135L504.76,34.2v2.866a3.287,3.287,0,0,1,1.063.629l2.348-1.5.877-3.815a.774.774,0,0,1,.931-.6h0a.8.8,0,0,1,.578.964L510.04,35,512,33.755a1.176,1.176,0,0,1,1.638.4h0a1.257,1.257,0,0,1-.389,1.686l-1.961,1.252,2.192.533a.8.8,0,0,1,.578.964h0a.785.785,0,0,1-.934.6l-3.7-.9-2.4,1.524a3.708,3.708,0,0,1,.06.665,2.53,2.53,0,0,1-.021.374l2.357,1.5,3.7-.9a.782.782,0,0,1,.934.6h0a.8.8,0,0,1-.578.964l-2.192.53,1.961,1.255a1.254,1.254,0,0,1,.389,1.683h0a1.18,1.18,0,0,1-1.638.4l-1.958-1.252.518,2.258a.8.8,0,0,1-.578.961h0a.775.775,0,0,1-.931-.593l-.877-3.818-2.144-1.366a3.426,3.426,0,0,1-1.267.815v2.548l2.692,2.773a.823.823,0,0,1,0,1.135h0a.762.762,0,0,1-1.1,0l-1.59-1.638v2.375a1.2,1.2,0,0,1-1.183,1.222h0a1.206,1.206,0,0,1-1.183-1.222V48.692L500.8,50.33a.762.762,0,0,1-1.1,0h0a.835.835,0,0,1,0-1.135l2.7-2.773V43.874a3.45,3.45,0,0,1-1.255-.8l-2.12,1.354-.877,3.818a.777.777,0,0,1-.934.593h0a.806.806,0,0,1-.581-.961l.524-2.258-1.958,1.252a1.178,1.178,0,0,1-1.638-.4h0a1.249,1.249,0,0,1,.389-1.683l1.961-1.255-2.2-.53a.807.807,0,0,1-.578-.964h0a.785.785,0,0,1,.937-.6l3.7.9,2.315-1.476c-.012-.129-.021-.264-.021-.4a3.51,3.51,0,0,1,.066-.689l-2.36-1.5-3.7.9a.788.788,0,0,1-.937-.6h0a.806.806,0,0,1,.578-.964l2.2-.533-1.961-1.252a1.251,1.251,0,0,1-.389-1.686h0a1.174,1.174,0,0,1,1.638-.4L497.151,35l-.524-2.255a.809.809,0,0,1,.581-.964h0a.777.777,0,0,1,.934.6l.877,3.815,2.324,1.482a3.461,3.461,0,0,1,1.051-.614V34.2l-2.7-2.773a.835.835,0,0,1,0-1.135h0a.762.762,0,0,1,1.1,0l1.593,1.638V29.554a1.206,1.206,0,0,1,1.183-1.222Zm0,10.3a1.838,1.838,0,1,1-1.776,1.839,1.807,1.807,0,0,1,1.776-1.839Z" transform="translate(-453.84 56.51)" fill-rule="evenodd" opacity="0.8" fill="url(#linear-gradient-2)"/>
    </g>
    <g transform="matrix(1, 0, 0, 1, 2343, 126)" filter="url(#패스_434)">
      <path id="패스_434-2" data-name="패스 434" d="M529.874,18.089a1.713,1.713,0,0,0-2.177-1.153L526,17.508l.165-.97a1.8,1.8,0,0,0-1.4-2.09,1.727,1.727,0,0,0-2,1.458l-.494,2.866-2.575.874v-2.83l2.458-1.369a1.839,1.839,0,0,0,.71-2.438,1.689,1.689,0,0,0-2.336-.743l-.833.464v-1.86a1.728,1.728,0,1,0-3.453,0v1.86l-.836-.464a1.687,1.687,0,0,0-2.333.743,1.844,1.844,0,0,0,.707,2.438l2.462,1.369v2.83l-2.578-.874-.488-2.866a1.734,1.734,0,0,0-2-1.458,1.793,1.793,0,0,0-1.4,2.09l.162.97-1.692-.572a1.711,1.711,0,0,0-2.174,1.153,1.823,1.823,0,0,0,1.105,2.273l1.7.575-.68.683a1.856,1.856,0,0,0-.048,2.548,1.7,1.7,0,0,0,1.243.551,1.671,1.671,0,0,0,1.2-.5l2.006-2.018,2.578.874-1.593,2.291-2.764-.4a1.736,1.736,0,0,0-1.94,1.539,1.792,1.792,0,0,0,1.467,2.033l.94.132-1.051,1.506a1.858,1.858,0,0,0,.383,2.518,1.677,1.677,0,0,0,1.012.341,1.713,1.713,0,0,0,1.4-.743l1.045-1.5.413.889a1.681,1.681,0,0,0,2.306.832,1.84,1.84,0,0,0,.8-2.411l-1.216-2.617,1.59-2.285,1.6,2.285-1.219,2.617a1.835,1.835,0,0,0,.8,2.411,1.655,1.655,0,0,0,.752.183,1.722,1.722,0,0,0,1.551-1.015l.416-.889,1.045,1.5a1.7,1.7,0,0,0,1.4.743,1.683,1.683,0,0,0,1.012-.341,1.855,1.855,0,0,0,.38-2.518l-1.048-1.506.937-.132a1.792,1.792,0,0,0,1.473-2.033,1.744,1.744,0,0,0-1.946-1.539l-2.761.4-1.59-2.291,2.575-.874,2.009,2.018a1.667,1.667,0,0,0,1.192.5,1.687,1.687,0,0,0,1.246-.551,1.856,1.856,0,0,0-.045-2.548l-.683-.683,1.695-.575a1.829,1.829,0,0,0,1.111-2.273" transform="translate(-428.14 18.09)" opacity="0.8" fill="url(#linear-gradient-2)"/>
    </g>
  </g>
</svg>
