<svg id="ic_device_n" xmlns="http://www.w3.org/2000/svg" width="24" height="24" viewBox="0 0 24 24">
  <path id="Bound" d="M0,0H24V24H0Z" fill="none"/>
  <g id="teh001" transform="translate(-50 -890)">
    <path id="패스_263" data-name="패스 263" d="M72.8,903.2H66.6v-2.4h6.2a1.2,1.2,0,0,0,0-2.4H65.6v-7.2a1.2,1.2,0,1,0-2.4,0v6.2H60.8v-6.2a1.2,1.2,0,1,0-2.4,0v7.2H51.2a1.2,1.2,0,0,0,0,2.4h6.2v2.4H51.2a1.2,1.2,0,0,0,0,2.4h7.2v7.2a1.2,1.2,0,0,0,2.4,0v-6.2h2.4v6.2a1.2,1.2,0,0,0,2.4,0v-7.2h7.2a1.2,1.2,0,0,0,0-2.4Z" transform="translate(0)" fill="#83849a" opacity="0.3"/>
    <path id="패스_264" data-name="패스 264" d="M65,906H55a1,1,0,0,1-1-1V895a1,1,0,0,1,1-1H65a1,1,0,0,1,1,1v10A1,1,0,0,1,65,906Zm-1.5-9.5h-7v7h7Z" transform="translate(2 2)" fill="#83849a"/>
  </g>
</svg>
