<svg xmlns="http://www.w3.org/2000/svg" width="16" height="16" viewBox="0 0 16 16">
  <g id="ic_drop_n" transform="translate(-204 -4)">
    <rect id="area" width="16" height="16" transform="translate(204 4)" fill="none"/>
    <path id="합치기_16" data-name="합치기 16" d="M-4510-906.6v-3.2h-3.4a.6.6,0,0,1-.6-.6.6.6,0,0,1,.6-.6h3.4v-3.4a.6.6,0,0,1,.6-.6.6.6,0,0,1,.6.6v3.4h3.2a.6.6,0,0,1,.6.6.6.6,0,0,1-.6.6h-3.2v3.2a.6.6,0,0,1-.6.6A.6.6,0,0,1-4510-906.6Z" transform="translate(4722.001 923)" fill="#83849a"/>
  </g>
</svg>
