<svg id="ic_event_n" xmlns="http://www.w3.org/2000/svg" width="24" height="24" viewBox="0 0 24 24">
  <path id="Bound" d="M0,0H24V24H0Z" fill="none"/>
  <g id="_156-analytics-2" data-name="156-analytics-2" transform="translate(2 3)">
    <path id="빼기_9" data-name="빼기 9" d="M-4498.375-743.375h-14.249a2.346,2.346,0,0,1-2.375-2.31V-755.69a2.346,2.346,0,0,1,2.375-2.31h14.249a2.346,2.346,0,0,1,2.375,2.31v10.006A2.346,2.346,0,0,1-4498.375-743.375Zm-7.917-8.852a.8.8,0,0,0-.559.226l-3.959,3.849a.757.757,0,0,0,0,1.089.8.8,0,0,0,.56.225.8.8,0,0,0,.56-.225l3.4-3.3,1.419,1.38a.8.8,0,0,0,.56.226.8.8,0,0,0,.56-.226l3.563-3.464a.756.756,0,0,0,0-1.089.8.8,0,0,0-.56-.225.8.8,0,0,0-.56.225l-3,2.92-1.42-1.38A.8.8,0,0,0-4506.292-752.227Z" transform="translate(4516 759)" fill="#83849a" opacity="0.3"/>
    <rect id="사각형_107" data-name="사각형 107" width="11" height="2" rx="1" transform="translate(5 17)" fill="#83849a"/>
  </g>
</svg>
