<svg id="ic_manual_n" xmlns="http://www.w3.org/2000/svg" width="24" height="24" viewBox="0 0 24 24">
  <rect id="bound" width="24" height="24" fill="none"/>
  <g id="gen003" transform="translate(2 2)" opacity="0.5">
    <path id="패스_4" data-name="패스 4" d="M157.061,75.037l2.722,4.636,5.25,1.156a1.231,1.231,0,0,1,.656,2.018l-3.568,4.021.523,5.351a1.23,1.23,0,0,1-1.717,1.247L156,91.316l-4.927,2.15a1.23,1.23,0,0,1-1.717-1.247l.523-5.351-3.568-4.021a1.231,1.231,0,0,1,.656-2.018l5.25-1.156,2.722-4.636A1.23,1.23,0,0,1,157.061,75.037Z" transform="translate(-146 -74.429)" fill="#83849a"/>
  </g>
</svg>
