<svg id="ic_notice_p" xmlns="http://www.w3.org/2000/svg" width="24" height="24" viewBox="0 0 24 24">
  <path id="Bound" d="M0,0H24V24H0Z" fill="none"/>
  <g id="gen007" transform="translate(-336 -73)">
    <path id="빼기_10" data-name="빼기 10" d="M-4171-614a3,3,0,0,1-3-3h6A3,3,0,0,1-4171-614Z" transform="translate(4519 708)" fill="#fff" stroke="rgba(0,0,0,0)" stroke-width="1"/>
    <path id="패스_11" data-name="패스 11" d="M355,87v3a1,1,0,0,1-1,1H342a1,1,0,0,1-1-1V87a2,2,0,0,0,2-2V82a5,5,0,0,1,4-4.9V76a1,1,0,0,1,2,0v1.1a5,5,0,0,1,4,4.9v3A2,2,0,0,0,355,87Zm-8-5a1,1,0,0,1,1-1,1,1,0,0,0,0-2,3,3,0,0,0-3,3,1,1,0,0,0,2,0Z" fill="#fff" opacity="0.3"/>
  </g>
</svg>
