<svg id="ic_support_p" xmlns="http://www.w3.org/2000/svg" width="24" height="24" viewBox="0 0 24 24">
  <path id="Bound" d="M0,0H24V24H0Z" fill="none"/>
  <g id="그룹_1176" data-name="그룹 1176" transform="translate(-312.464 -145.177)">
    <path id="패스_728" data-name="패스 728" d="M368.089,211.448a3.163,3.163,0,0,1,3.16-3.16h1.58a3.165,3.165,0,0,1,2.925,1.965,3.853,3.853,0,0,0,2.153-.607c.711-.625.806-2.044.806-2.92a6.7,6.7,0,1,0-10.527,5.5A3.16,3.16,0,0,1,368.089,211.448Z" transform="translate(-47.759 -47.759)" fill="#7496e4"/>
    <path id="패스_729" data-name="패스 729" d="M324.254,165.343c3.977,0,6.31-.077,8.016-1.653a6.118,6.118,0,0,0,1.774-4.722,9.79,9.79,0,1,0-19.581,0,.608.608,0,0,0,1.215,0,8.575,8.575,0,1,1,17.15,0,4.985,4.985,0,0,1-1.383,3.83c-1.009.932-2.37,1.218-4.786,1.3a1.642,1.642,0,0,0-1.59-2.049h-1.58a1.641,1.641,0,1,0,0,3.281Z" transform="translate(0)" fill="#fff"/>
  </g>
</svg>
