<svg id="ic_statistics_n" xmlns="http://www.w3.org/2000/svg" width="24" height="24" viewBox="0 0 24 24">
  <rect id="bound" width="24" height="24" fill="none"/>
  <g id="gra003" transform="translate(-144 -744)">
    <path id="패스_215" data-name="패스 215" d="M161.663,749.624a2.758,2.758,0,0,0-2.919.632l-4.58,4.58a2.8,2.8,0,0,1-2.746.712L149,754.857V763h15V750.5Z" fill="#d9dae0"/>
    <path id="패스_216" data-name="패스 216" d="M165,762H150V747a1,1,0,0,0-2,0v15h-1a1,1,0,0,0,0,2h1v1a1,1,0,0,0,2,0v-1h15a1,1,0,0,0,0-2Z" fill="#83849a"/>
  </g>
</svg>
