<svg xmlns="http://www.w3.org/2000/svg" width="28" height="28" viewBox="0 0 28 28">
  <g id="ic_map_09_er" transform="translate(-262 -613)">
    <g id="ic_widget_map" transform="translate(262 613)">
      <g id="p" fill="#f1416c" stroke="#bb2046" stroke-width="1">
        <circle cx="14" cy="14" r="14" stroke="none"/>
        <circle cx="14" cy="14" r="13.5" fill="none"/>
      </g>
    </g>
    <path id="패스_765" data-name="패스 765" d="M0,0" transform="translate(283.349 634.349) rotate(135)" fill="none" stroke="#fff" stroke-width="1.6"/>
    <path id="패스_770" data-name="패스 770" d="M136.132,180.256c-.358-.065-.723-.1-1.072-.2a4.764,4.764,0,0,1-3.767-3.54,5.455,5.455,0,0,1,.906-4.522c.863-1.224,1.808-2.391,2.663-3.62a8.756,8.756,0,0,0,1.575-3.89c.058-.448.039-.906.053-1.36,0-.166,0-.332,0-.568a2.787,2.787,0,0,1,.324.145,11.783,11.783,0,0,1,4.5,5.456c.57,1.351,1.92,2.554,1.558-1.4-.184-1.686,3.743,5.58,1.913,10.266-1.206,2.224-1.857,2.512-4.293,3.108a5.338,5.338,0,0,1-1.234.077c-.446-.034-.163-.384-.086-.452.394-.35.829-.661,1.188-1.044a3.008,3.008,0,0,0,.522-3.64,14.011,14.011,0,0,0-3.032-4.094c-.458-.428-.741-.349-.88.265a6.91,6.91,0,0,1-1.321,2.728,8.542,8.542,0,0,0-.866,1.278,3.522,3.522,0,0,0,1.022,4.486C136.606,180.278,136.16,180.206,136.132,180.256Z" transform="translate(137.862 455.594)" fill="#fff"/>
  </g>
</svg>
