<svg id="ic_map_60_02_n" xmlns="http://www.w3.org/2000/svg" width="60" height="60" viewBox="0 0 60 60">
  <g id="ic_widget_map">
    <circle id="n" cx="30" cy="30" r="30" fill="#50cd89"/>
  </g>
  <path id="Icon_open-video" data-name="Icon open-video" d="M4.438,0a1.986,1.986,0,0,0-1.98,1.98V17.823a1.986,1.986,0,0,0,1.98,1.98H18.974a1.961,1.961,0,0,0,1.98-1.98V11.882l3.961,3.961h3.961V3.961H24.915L20.955,7.921V1.98A1.961,1.961,0,0,0,18.974,0Z" transform="translate(7.094 19.813)" fill="#fff"/>
  <path id="패스_773" data-name="패스 773" d="M20.094,5.158a1.49,1.49,0,0,0-.345-2.083,16.4,16.4,0,0,0-19.123,0A1.494,1.494,0,1,0,2.365,5.5a13.429,13.429,0,0,1,15.644,0,1.494,1.494,0,0,0,2.085-.345Zm-3.476,4.865a1.49,1.49,0,0,0-.345-2.083A10.62,10.62,0,0,0,4.1,7.94a1.494,1.494,0,1,0,1.74,2.429,7.6,7.6,0,0,1,8.689,0,1.494,1.494,0,0,0,2.085-.345Z" transform="translate(50.904 19.813) rotate(90)" fill="#fff" opacity="0.7"/>
</svg>
