<svg xmlns="http://www.w3.org/2000/svg" width="40" height="40" viewBox="0 0 40 40">
  <g id="ic_map_40_10" transform="translate(-262 -613)">
    <g id="ic_widget_map" transform="translate(262 613)">
      <g id="n" fill="#50cd89" stroke="#159d53" stroke-width="1">
        <circle cx="20" cy="20" r="20" stroke="none"/>
        <circle cx="20" cy="20" r="19.5" fill="none"/>
      </g>
    </g>
    <path id="패스_765" data-name="패스 765" d="M0,0" transform="translate(292.499 643.499) rotate(135)" fill="none" stroke="#fff" stroke-width="1.6"/>
    <path id="패스_769" data-name="패스 769" d="M432.031,247.757c-.392-2-.793-4-1.172-6a1.972,1.972,0,0,0-2.016-1.934,2.254,2.254,0,0,1-1.9-1.507,2.283,2.283,0,0,1,.507-2.457c.481-.5.4-.633-.211-.876-2.178-.868-3.046-2.732-3.293-4.865a8.592,8.592,0,0,1,4.743-8.688c2.284-.984,7.12-1.093,8.842,1.653.23.367.558.289.883.306a12.744,12.744,0,0,1,2.446.134,5.988,5.988,0,0,1,4.734,7.619,7.034,7.034,0,0,1-6.878,5.557c-.766.042-1.069.234-1.114,1.024a3.558,3.558,0,0,1-2.647,3.351c-1.935.614-2.094,1.517-2.274,3.07-.138,1.2-.287,2.393-.431,3.59Z" transform="translate(-151.912 400.153)" fill="#fff"/>
  </g>
</svg>
