<svg xmlns="http://www.w3.org/2000/svg" width="60" height="60" viewBox="0 0 60 60">
  <g id="ic_map_60_14_n" transform="translate(-1123 -605)">
    <g id="ic_widget_map" transform="translate(1123 605)">
      <circle id="n" cx="30" cy="30" r="30" fill="#50cd89"/>
    </g>
    <path id="빼기_19" data-name="빼기 19" d="M17.143,27.214C7.69,27.214,0,25.292,0,22.928c0-.726.741-1.445,2.143-2.077V13.5a11.005,11.005,0,0,1,8.7-10.76l.943,7.545.973-7.779.052,0h.047V1a1,1,0,0,1,1-1h6.571a1,1,0,0,1,1,1V2.5l.086,0h.013l.972,7.779.943-7.545a11.005,11.005,0,0,1,8.7,10.76v7.351c1.4.633,2.143,1.351,2.143,2.077C34.285,25.292,26.6,27.214,17.143,27.214Zm0-16.5A5.357,5.357,0,1,0,22.5,16.072,5.364,5.364,0,0,0,17.143,10.715Z" transform="translate(1135.857 620.641)" fill="#fff"/>
    <path id="합치기_26" data-name="합치기 26" d="M2.147,6.435V4.288H0V2.147H2.147V0H4.286V2.147H6.431v2.14H4.286V6.435Z" transform="translate(1149.784 633.607)" fill="#fff"/>
  </g>
</svg>
