<svg xmlns="http://www.w3.org/2000/svg" width="60" height="60" viewBox="0 0 60 60">
  <g id="ic_map_60_04_n" transform="translate(-262 -613)">
    <g id="ic_widget_map_nor" transform="translate(262 613)">
      <circle id="n" cx="30" cy="30" r="30" fill="#50cd89"/>
    </g>
    <path id="Icon_ionic-ios-hand" data-name="Icon ionic-ios-hand" d="M26.463,7.636A1.339,1.339,0,0,0,25.071,8.9v6.726a.59.59,0,0,1-1.174,0V5.705a1.4,1.4,0,0,0-2.783,0v7.8a.59.59,0,0,1-1.174,0V4.641a1.4,1.4,0,0,0-2.783,0v9.923a.59.59,0,0,1-1.174,0v-7.8a1.4,1.4,0,0,0-2.783,0V20.19l-1.833-1.451c-1.721-1.4-3.179-1.992-4.366-.965-.8.725.455,1.9,1.768,3.271,1.266,1.322,4.617,5.65,7.472,7.212a5.411,5.411,0,0,0,2.678.7h3.772c3.04,0,5.171-2.33,5.171-5.73V8.9A1.349,1.349,0,0,0,26.463,7.636Z" transform="translate(272.581 626.673)" fill="#fff" opacity="0.7"/>
    <g id="패스_766" data-name="패스 766" transform="translate(268.429 619.429)" fill="none">
      <path d="M23.571,0A23.571,23.571,0,1,1,0,23.571,23.571,23.571,0,0,1,23.571,0Z" stroke="none"/>
      <path d="M 23.5714282989502 4 C 18.34370803833008 4 13.42889785766602 6.035778045654297 9.732337951660156 9.732337951660156 C 6.035778045654297 13.42889785766602 4 18.34370803833008 4 23.5714282989502 C 4 28.79914855957031 6.035778045654297 33.71395874023438 9.732337951660156 37.41051864624023 C 13.42889785766602 41.10707855224609 18.34370803833008 43.14285659790039 23.5714282989502 43.14285659790039 C 28.79914855957031 43.14285659790039 33.71395874023438 41.10707855224609 37.41051864624023 37.41051864624023 C 41.10707855224609 33.71395874023438 43.14285659790039 28.79914855957031 43.14285659790039 23.5714282989502 C 43.14285659790039 18.34370803833008 41.10707855224609 13.42889785766602 37.41051864624023 9.732337951660156 C 33.71395874023438 6.035778045654297 28.79914855957031 4 23.5714282989502 4 M 23.5714282989502 0 C 36.58956909179688 0 47.14285659790039 10.55328750610352 47.14285659790039 23.5714282989502 C 47.14285659790039 36.58956909179688 36.58956909179688 47.14285659790039 23.5714282989502 47.14285659790039 C 10.55328750610352 47.14285659790039 0 36.58956909179688 0 23.5714282989502 C 0 10.55328750610352 10.55328750610352 0 23.5714282989502 0 Z" stroke="none" fill="#fff"/>
    </g>
    <line id="선_1" data-name="선 1" y1="45" transform="translate(307.748 658.748) rotate(135)" fill="none" stroke="#fff" stroke-width="4"/>
  </g>
</svg>
