<svg xmlns="http://www.w3.org/2000/svg" width="40" height="40" viewBox="0 0 40 40">
  <g id="ic_map_40_06_e" transform="translate(-262 -613)">
    <g id="ic_widget_map" transform="translate(262 613)">
      <g id="n" fill="#f1416c" stroke="#bb2046" stroke-width="1">
        <circle cx="20" cy="20" r="20" stroke="none"/>
        <circle cx="20" cy="20" r="19.5" fill="none"/>
      </g>
    </g>
    <path id="Icon_metro-heartbeat" data-name="Icon metro-heartbeat" d="M18.8,15.769H22.67a1.287,1.287,0,0,1-.127.133q-.063.057-.114.1l-.038.051-7.9,7.608a.8.8,0,0,1-1.116,0L5.462,16.023a1.2,1.2,0,0,1-.266-.254H9.875a.8.8,0,0,0,.5-.171.761.761,0,0,0,.285-.437l.888-3.563,2.409,8.458a.808.808,0,0,0,.292.418.792.792,0,0,0,.495.165.774.774,0,0,0,.482-.165.808.808,0,0,0,.292-.418l1.851-6.15.71,1.42a.76.76,0,0,0,.723.444Zm6.493-5.427a6.894,6.894,0,0,1-1.306,3.8H19.309l-1.408-2.8A.765.765,0,0,0,17.579,11a.807.807,0,0,0-1.173.482L14.77,16.936l-2.485-8.7a.8.8,0,0,0-.3-.418.819.819,0,0,0-.5-.165.793.793,0,0,0-.774.609L9.241,14.146H3.877a6.894,6.894,0,0,1-1.306-3.8,5.816,5.816,0,0,1,1.61-4.362A6.1,6.1,0,0,1,8.632,4.407a5.054,5.054,0,0,1,1.6.273,6.493,6.493,0,0,1,1.522.735q.7.463,1.211.869a11.7,11.7,0,0,1,.964.862,11.68,11.68,0,0,1,.964-.862q.507-.406,1.211-.869a6.492,6.492,0,0,1,1.522-.735,5.055,5.055,0,0,1,1.6-.273,6.1,6.1,0,0,1,4.451,1.572,5.816,5.816,0,0,1,1.61,4.362Z" transform="translate(268.068 620.025)" fill="#fff"/>
  </g>
</svg>
