<svg xmlns="http://www.w3.org/2000/svg" width="40" height="40" viewBox="0 0 40 40">
  <g id="ic_map_40_08_e" transform="translate(-262 -613)">
    <g id="ic_widget_map" transform="translate(262 613)">
      <g id="n" fill="#f1416c" stroke="#bb2046" stroke-width="1">
        <circle cx="20" cy="20" r="20" stroke="none"/>
        <circle cx="20" cy="20" r="19.5" fill="none"/>
      </g>
    </g>
    <g id="그룹_1288" data-name="그룹 1288" transform="translate(271.286 622.286)">
      <path id="합치기_14" data-name="합치기 14" d="M1,21.428a1,1,0,0,1-1-1V13.856a1,1,0,0,1,1-1H14.713a1,1,0,0,1,1,1v6.572a1,1,0,0,1-1,1Zm5.572-8.573V6.9a3.571,3.571,0,1,1,2.572,0v5.952Z" transform="translate(2.856)" fill="#fff"/>
      <path id="합치기_12" data-name="합치기 12" d="M1.55,2.857H0V1.428H1.55a2.143,2.143,0,1,1,0,1.429Z" transform="translate(15.714 1.429)" fill="#fff" opacity="0.7"/>
      <path id="합치기_13" data-name="합치기 13" d="M0,2.143a2.143,2.143,0,0,1,4.163-.714h1.55V2.857H4.163A2.143,2.143,0,0,1,0,2.143Z" transform="translate(0 1.429)" fill="#fff" opacity="0.7"/>
    </g>
  </g>
</svg>
