<svg xmlns="http://www.w3.org/2000/svg" width="28" height="28" viewBox="0 0 28 28">
  <g id="ic_map_16_n" transform="translate(-1123 -605)">
    <g id="ic_widget_map" transform="translate(1123 605)">
      <g id="n" fill="#50cd89" stroke="#159d53" stroke-width="1">
        <circle cx="14" cy="14" r="14" stroke="none"/>
        <circle cx="14" cy="14" r="13.5" fill="none"/>
      </g>
    </g>
    <path id="빼기_23" data-name="빼기 23" d="M-12967.407-7240.93a6.586,6.586,0,0,1-2.55-.508,6.423,6.423,0,0,1-2.106-1.384,6.538,6.538,0,0,1-1.41-2.1,6.611,6.611,0,0,1-.527-2.614,7.1,7.1,0,0,1,.645-2.7,15.217,15.217,0,0,1,1.657-2.957,32.469,32.469,0,0,1,3.624-4.165l.668-.645a5.845,5.845,0,0,0,.742.645c.424.436,1.02,1.1,1.677,1.862.814.953,1.423,1.682,1.938,2.367a16.085,16.085,0,0,1,1.615,2.9,7.128,7.128,0,0,1,.66,2.706,6.452,6.452,0,0,1-.518,2.549,6.673,6.673,0,0,1-1.4,2.106,6.617,6.617,0,0,1-2.113,1.41A6.608,6.608,0,0,1-12967.407-7240.93Zm2.133-6.085a1.964,1.964,0,0,0-1.443.515,1.766,1.766,0,0,0-.508,1.289v.462a1.756,1.756,0,0,0,.512,1.292,1.991,1.991,0,0,0,1.452.511,1.938,1.938,0,0,0,1.436-.508,1.782,1.782,0,0,0,.5-1.3v-.462a1.789,1.789,0,0,0-.5-1.292A1.944,1.944,0,0,0-12965.274-7247.015Zm-.548-4.021h0l-4.271,6.841.944.475,4.275-6.841Zm-3.617-.909a1.928,1.928,0,0,0-1.436.515,1.781,1.781,0,0,0-.5,1.3v.462a1.738,1.738,0,0,0,.508,1.286,1.952,1.952,0,0,0,1.445.511,1.94,1.94,0,0,0,1.437-.508,1.752,1.752,0,0,0,.5-1.289v-.462a1.771,1.771,0,0,0-.5-1.3A1.951,1.951,0,0,0-12969.439-7251.945Zm4.178,7.906a.621.621,0,0,1-.469-.212.718.718,0,0,1-.192-.5v-.462a.761.761,0,0,1,.169-.5.578.578,0,0,1,.479-.208.578.578,0,0,1,.479.208.762.762,0,0,1,.172.5v.462a.9.9,0,0,1-.133.524A.578.578,0,0,1-12965.262-7244.039Zm-4.165-4.93a.6.6,0,0,1-.488-.2.761.761,0,0,1-.166-.5v-.462a.784.784,0,0,1,.166-.508.575.575,0,0,1,.476-.208.582.582,0,0,1,.482.208.784.784,0,0,1,.166.508v.462a.756.756,0,0,1-.163.5A.58.58,0,0,1-12969.427-7248.969Z" transform="translate(14104.353 7868.465)" fill="#fff"/>
  </g>
</svg>
