<svg xmlns="http://www.w3.org/2000/svg" width="40" height="40" viewBox="0 0 40 40">
  <g id="ic_map_40_07_e" transform="translate(-262 -613)">
    <g id="ic_widget_map" transform="translate(262 613)">
      <g id="n" fill="#f1416c" stroke="#bb2046" stroke-width="1">
        <circle cx="20" cy="20" r="20" stroke="none"/>
        <circle cx="20" cy="20" r="19.5" fill="none"/>
      </g>
    </g>
    <path id="Icon_feather-thermometer" data-name="Icon feather-thermometer" d="M17.9,16.051V4.144a2.644,2.644,0,1,0-5.287,0V16.051a4.759,4.759,0,1,0,5.287,0Z" transform="translate(265.996 620.483)" fill="none" stroke="#fff" stroke-linecap="round" stroke-linejoin="round" stroke-width="1.6"/>
    <path id="합치기_23" data-name="합치기 23" d="M0,11.714A2.144,2.144,0,0,1,1.429,9.693V.715a.714.714,0,1,1,1.428,0V9.694A2.143,2.143,0,1,1,0,11.714Z" transform="translate(279.143 628.714)" fill="#fff" opacity="0.7"/>
    <path id="합치기_28" data-name="합치기 28" d="M0,10V8.573H2.861V10ZM0,5.712V4.284H2.861V5.712ZM0,1.428V0H2.861V1.428Z" transform="translate(287.711 624.429)" fill="#fff"/>
  </g>
</svg>
