<svg xmlns="http://www.w3.org/2000/svg" width="60" height="60" viewBox="0 0 60 60">
  <g id="ic_map_60_09_e" transform="translate(-262 -613)">
    <circle id="er" cx="30" cy="30" r="30" transform="translate(262 613)" fill="#f1416c"/>
    <path id="패스_765" data-name="패스 765" d="M0,0" transform="translate(307.748 658.748) rotate(135)" fill="none" stroke="#fff" stroke-width="1.6"/>
    <path id="패스_770" data-name="패스 770" d="M141.839,200.485c-.767-.139-1.55-.22-2.3-.427-4.015-1.111-7.08-3.339-8.073-7.586a11.689,11.689,0,0,1,1.942-9.691c1.85-2.623,3.875-5.123,5.707-7.758a18.763,18.763,0,0,0,3.375-8.336c.124-.96.084-1.942.113-2.914.01-.355,0-.711,0-1.217a5.973,5.973,0,0,1,.694.312,25.25,25.25,0,0,1,9.641,11.691c1.221,2.9,4.114,5.473,3.339-3-.394-3.613,8.021,11.957,4.1,22-2.584,4.765-3.979,5.382-9.2,6.66a11.439,11.439,0,0,1-2.644.165c-.955-.073-.348-.822-.185-.968.845-.75,1.776-1.417,2.545-2.237a6.445,6.445,0,0,0,1.119-7.8,30.022,30.022,0,0,0-6.5-8.773c-.982-.918-1.587-.748-1.886.569a14.808,14.808,0,0,1-2.83,5.846,18.3,18.3,0,0,0-1.856,2.738,7.547,7.547,0,0,0,2.19,9.613C142.855,200.532,141.9,200.378,141.839,200.485Z" transform="translate(145.861 461.48)" fill="#fff"/>
  </g>
</svg>
