<svg xmlns="http://www.w3.org/2000/svg" width="28" height="28" viewBox="0 0 28 28">
  <g id="ic_map_06_n" transform="translate(-262 -613)">
    <g id="ic_widget_map" transform="translate(262 613)">
      <g id="n" fill="#50cd89" stroke="#159d53" stroke-width="1">
        <circle cx="14" cy="14" r="14" stroke="none"/>
        <circle cx="14" cy="14" r="13.5" fill="none"/>
      </g>
    </g>
    <path id="Icon_metro-heartbeat" data-name="Icon metro-heartbeat" d="M13.933,12.36H16.64a.9.9,0,0,1-.089.093q-.044.04-.08.067l-.027.036-5.53,5.326a.557.557,0,0,1-.781,0L4.595,12.538a.838.838,0,0,1-.186-.178H7.684a.559.559,0,0,0,.351-.12.533.533,0,0,0,.2-.306L8.855,9.44l1.687,5.921a.566.566,0,0,0,.2.293.555.555,0,0,0,.346.115.542.542,0,0,0,.337-.115.566.566,0,0,0,.2-.293l1.3-4.305.5.994a.532.532,0,0,0,.506.311Zm4.545-3.8a4.826,4.826,0,0,1-.914,2.663H14.288L13.3,9.262a.535.535,0,0,0-.226-.24.565.565,0,0,0-.821.337L11.11,13.177,9.37,7.088a.557.557,0,0,0-.209-.293.573.573,0,0,0-.351-.115.555.555,0,0,0-.541.426L7.24,11.224H3.485a4.825,4.825,0,0,1-.914-2.663A4.071,4.071,0,0,1,3.7,5.508a4.27,4.27,0,0,1,3.116-1.1A3.538,3.538,0,0,1,7.937,4.6,4.545,4.545,0,0,1,9,5.113q.493.324.848.608a8.186,8.186,0,0,1,.675.6,8.176,8.176,0,0,1,.675-.6q.355-.284.848-.608A4.544,4.544,0,0,1,13.112,4.6a3.538,3.538,0,0,1,1.123-.191,4.27,4.27,0,0,1,3.116,1.1,4.071,4.071,0,0,1,1.127,3.054Z" transform="translate(265.476 616.595)" fill="#fff"/>
  </g>
</svg>
