<svg xmlns="http://www.w3.org/2000/svg" width="40" height="40" viewBox="0 0 40 40">
  <g id="ic_map_40_11" transform="translate(-1123 -486)">
    <g id="ic_widget_map" transform="translate(1123 486)">
      <g id="n" fill="#50cd89" stroke="#159d53" stroke-width="1">
        <circle cx="20" cy="20" r="20" stroke="none"/>
        <circle cx="20" cy="20" r="19.5" fill="none"/>
      </g>
    </g>
    <path id="다각형_5" data-name="다각형 5" d="M10.082.844a1,1,0,0,1,1.552.511l.308,1.008a1,1,0,0,0,.983.707l1.1-.029a1,1,0,0,1,.965,1.346l-.334.906a1,1,0,0,0,.387,1.181l.832.55a1,1,0,0,1,0,1.669l-.832.55a1,1,0,0,0-.387,1.181l.334.906a1,1,0,0,1-.965,1.346l-1.1-.029a1,1,0,0,0-.983.707l-.308,1.008a1,1,0,0,1-1.552.511l-.915-.679a1,1,0,0,0-1.191,0l-.915.679a1,1,0,0,1-1.552-.511L5.2,13.352a1,1,0,0,0-.983-.707l-1.1.029a1,1,0,0,1-.965-1.346l.334-.906A1,1,0,0,0,2.1,9.241l-.832-.55a1,1,0,0,1,0-1.669l.832-.55a1,1,0,0,0,.387-1.181l-.334-.906A1,1,0,0,1,3.113,3.04l1.1.029A1,1,0,0,0,5.2,2.362l.308-1.008A1,1,0,0,1,7.06.844l.915.679a1,1,0,0,0,1.191,0Z" transform="translate(1129.429 501.714)" fill="#fff"/>
    <path id="다각형_6" data-name="다각형 6" d="M4.027.618a.881.881,0,0,1,1.311.543h0a.881.881,0,0,0,.644.644h0a.881.881,0,0,1,.543,1.311h0a.881.881,0,0,0,0,.911h0a.881.881,0,0,1-.543,1.311h0a.881.881,0,0,0-.644.644h0a.881.881,0,0,1-1.311.543h0a.881.881,0,0,0-.911,0h0a.881.881,0,0,1-1.311-.543h0a.881.881,0,0,0-.644-.644h0A.881.881,0,0,1,.618,4.027h0a.881.881,0,0,0,0-.911h0a.881.881,0,0,1,.543-1.311h0a.881.881,0,0,0,.644-.644h0A.881.881,0,0,1,3.116.618h0a.881.881,0,0,0,.911,0Z" transform="translate(1143 494.571)" fill="#fff" opacity="0.7"/>
    <path id="다각형_7" data-name="다각형 7" d="M4.027.618a.881.881,0,0,1,1.311.543h0a.881.881,0,0,0,.644.644h0a.881.881,0,0,1,.543,1.311h0a.881.881,0,0,0,0,.911h0a.881.881,0,0,1-.543,1.311h0a.881.881,0,0,0-.644.644h0a.881.881,0,0,1-1.311.543h0a.881.881,0,0,0-.911,0h0a.881.881,0,0,1-1.311-.543h0a.881.881,0,0,0-.644-.644h0A.881.881,0,0,1,.618,4.027h0a.881.881,0,0,0,0-.911h0a.881.881,0,0,1,.543-1.311h0a.881.881,0,0,0,.644-.644h0A.881.881,0,0,1,3.116.618h0a.881.881,0,0,0,.911,0Z" transform="translate(1150.143 507.429)" fill="#fff" opacity="0.7"/>
  </g>
</svg>
