<svg xmlns="http://www.w3.org/2000/svg" width="28" height="28" viewBox="0 0 28 28">
  <g id="ic_map_16_er" transform="translate(-1123 -605)">
    <g id="ic_widget_map" transform="translate(1123 605)">
      <g id="p" fill="#f1416c" stroke="#bb2046" stroke-width="1">
        <circle cx="14" cy="14" r="14" stroke="none"/>
        <circle cx="14" cy="14" r="13.5" fill="none"/>
      </g>
    </g>
    <path id="빼기_22" data-name="빼기 22" d="M-13019.406-7240.931a6.605,6.605,0,0,1-2.55-.507,6.451,6.451,0,0,1-2.109-1.383,6.506,6.506,0,0,1-1.408-2.1,6.551,6.551,0,0,1-.526-2.615,7.111,7.111,0,0,1,.644-2.7,15.067,15.067,0,0,1,1.657-2.952,32.749,32.749,0,0,1,3.623-4.168l.67-.641a5.468,5.468,0,0,0,.742.641c.425.437,1.021,1.1,1.677,1.867s1.36,1.6,1.936,2.364a15.846,15.846,0,0,1,1.614,2.9,7.1,7.1,0,0,1,.661,2.7,6.389,6.389,0,0,1-.517,2.553,6.718,6.718,0,0,1-1.4,2.1,6.612,6.612,0,0,1-2.115,1.409A6.59,6.59,0,0,1-13019.406-7240.931Zm2.131-6.084a1.958,1.958,0,0,0-1.441.514,1.771,1.771,0,0,0-.51,1.291v.461a1.73,1.73,0,0,0,.513,1.292,1.977,1.977,0,0,0,1.452.513,1.937,1.937,0,0,0,1.435-.51,1.771,1.771,0,0,0,.5-1.294v-.461a1.782,1.782,0,0,0-.5-1.294A1.957,1.957,0,0,0-13017.275-7247.015Zm-.546-4.021h0l-4.272,6.839.945.477,4.272-6.842Zm-3.618-.909a1.941,1.941,0,0,0-1.436.513,1.788,1.788,0,0,0-.5,1.3v.461a1.767,1.767,0,0,0,.507,1.288,1.956,1.956,0,0,0,1.445.51,1.949,1.949,0,0,0,1.436-.507,1.766,1.766,0,0,0,.506-1.292v-.461a1.785,1.785,0,0,0-.506-1.3A1.96,1.96,0,0,0-13021.439-7251.945Zm4.178,7.9a.61.61,0,0,1-.468-.209.717.717,0,0,1-.192-.5v-.461a.751.751,0,0,1,.17-.5.579.579,0,0,1,.477-.206.594.594,0,0,1,.48.206.747.747,0,0,1,.171.5v.461a.889.889,0,0,1-.131.523A.587.587,0,0,1-13017.262-7244.04Zm-4.165-4.93a.6.6,0,0,1-.487-.2.765.765,0,0,1-.167-.5v-.461a.787.787,0,0,1,.167-.51.579.579,0,0,1,.475-.206.586.586,0,0,1,.48.206.773.773,0,0,1,.17.51v.461a.765.765,0,0,1-.167.5A.567.567,0,0,1-13021.427-7248.97Z" transform="translate(14156.353 7868.465)" fill="#fff"/>
  </g>
</svg>
