<svg xmlns="http://www.w3.org/2000/svg" width="60" height="60" viewBox="0 0 60 60">
  <g id="ic_map_60_10_e" transform="translate(-262 -613)">
    <circle id="er" cx="30" cy="30" r="30" transform="translate(262 613)" fill="#f1416c"/>
    <path id="패스_765" data-name="패스 765" d="M0,0" transform="translate(307.748 658.748) rotate(135)" fill="none" stroke="#fff" stroke-width="1.6"/>
    <path id="패스_769" data-name="패스 769" d="M436.1,261.238c-.588-3-1.189-6-1.758-9-.369-1.949-1.04-2.619-3.025-2.9a3.381,3.381,0,0,1-2.849-2.26,3.425,3.425,0,0,1,.761-3.686c.721-.745.6-.949-.317-1.314-3.267-1.3-4.569-4.1-4.94-7.3-.591-5.1,2.178-10.9,7.114-13.031,3.426-1.476,10.68-1.64,13.263,2.479.345.551.838.434,1.325.459a19.118,19.118,0,0,1,3.669.2c5.6,1.368,8.389,5.831,7.1,11.428-1.164,5.053-5.106,8.049-10.317,8.335-1.149.063-1.6.35-1.671,1.537a5.337,5.337,0,0,1-3.971,5.027c-2.9.921-3.142,2.276-3.411,4.605-.208,1.8-.431,3.59-.647,5.385Z" transform="translate(-146.922 404.127)" fill="#fff"/>
  </g>
</svg>
