<svg xmlns="http://www.w3.org/2000/svg" width="60" height="60" viewBox="0 0 60 60">
  <g id="ic_map_60_11_n" transform="translate(-1123 -486)">
    <g id="ic_widget_map" transform="translate(1123 486)">
      <circle id="n" cx="30" cy="30" r="30" fill="#50cd89"/>
    </g>
    <path id="다각형_5" data-name="다각형 5" d="M15.693.844a1,1,0,0,1,1.552.511l.781,2.553a1,1,0,0,0,.983.707l2.775-.074a1,1,0,0,1,.965,1.346l-.894,2.424a1,1,0,0,0,.387,1.181l2.211,1.46a1,1,0,0,1,0,1.669l-2.211,1.46a1,1,0,0,0-.387,1.181l.894,2.424a1,1,0,0,1-.965,1.346l-2.775-.074a1,1,0,0,0-.983.707l-.781,2.553a1,1,0,0,1-1.552.511l-2.24-1.661a1,1,0,0,0-1.191,0l-2.24,1.661a1,1,0,0,1-1.552-.511l-.781-2.553a1,1,0,0,0-.983-.707l-2.775.074a1,1,0,0,1-.965-1.346l.894-2.424a1,1,0,0,0-.387-1.181L1.263,12.62a1,1,0,0,1,0-1.669l2.211-1.46a1,1,0,0,0,.387-1.181L2.966,5.887a1,1,0,0,1,.965-1.346l2.775.074a1,1,0,0,0,.983-.707L8.47,1.354A1,1,0,0,1,10.022.844L12.261,2.5a1,1,0,0,0,1.191,0Z" transform="translate(1132.643 509.571)" fill="#fff"/>
    <path id="다각형_6" data-name="다각형 6" d="M6.414.7A1,1,0,0,1,7.9,1.317l.152.613a1,1,0,0,0,.731.731l.613.152A1,1,0,0,1,10.013,4.3l-.326.54a1,1,0,0,0,0,1.033l.326.54A1,1,0,0,1,9.4,7.9l-.613.152a1,1,0,0,0-.731.731L7.9,9.4a1,1,0,0,1-1.488.616l-.54-.326a1,1,0,0,0-1.033,0l-.54.326A1,1,0,0,1,2.812,9.4l-.152-.613a1,1,0,0,0-.731-.731L1.317,7.9A1,1,0,0,1,.7,6.414l.326-.54a1,1,0,0,0,0-1.033L.7,4.3a1,1,0,0,1,.616-1.488l.613-.152a1,1,0,0,0,.731-.731l.152-.613A1,1,0,0,1,4.3.7l.54.326a1,1,0,0,0,1.033,0Z" transform="translate(1153 498.857)" fill="#fff" opacity="0.7"/>
    <path id="다각형_7" data-name="다각형 7" d="M6.414.7A1,1,0,0,1,7.9,1.317l.152.613a1,1,0,0,0,.731.731l.613.152A1,1,0,0,1,10.013,4.3l-.326.54a1,1,0,0,0,0,1.033l.326.54A1,1,0,0,1,9.4,7.9l-.613.152a1,1,0,0,0-.731.731L7.9,9.4a1,1,0,0,1-1.488.616l-.54-.326a1,1,0,0,0-1.033,0l-.54.326A1,1,0,0,1,2.812,9.4l-.152-.613a1,1,0,0,0-.731-.731L1.317,7.9A1,1,0,0,1,.7,6.414l.326-.54a1,1,0,0,0,0-1.033L.7,4.3a1,1,0,0,1,.616-1.488l.613-.152a1,1,0,0,0,.731-.731l.152-.613A1,1,0,0,1,4.3.7l.54.326a1,1,0,0,0,1.033,0Z" transform="translate(1163.714 518.143)" fill="#fff" opacity="0.7"/>
  </g>
</svg>
