<svg xmlns="http://www.w3.org/2000/svg" width="28" height="28" viewBox="0 0 28 28">
  <g id="ic_map_15_er" transform="translate(-1123 -605)">
    <g id="ic_widget_map" transform="translate(1123 605)">
      <g id="p" fill="#f1416c" stroke="#bb2046" stroke-width="1">
        <circle cx="14" cy="14" r="14" stroke="none"/>
        <circle cx="14" cy="14" r="13.5" fill="none"/>
      </g>
    </g>
    <rect id="사각형_297" data-name="사각형 297" width="6" height="4" transform="translate(1134 609)" fill="#fff" opacity="0.5"/>
    <rect id="사각형_298" data-name="사각형 298" width="6" height="4" transform="translate(1134 625)" fill="#fff" opacity="0.5"/>
    <path id="빼기_24" data-name="빼기 24" d="M-13018-7204h-6a2,2,0,0,1-2-2v-6a2,2,0,0,1,2-2h6a2,2,0,0,1,2,2v6A2,2,0,0,1-13018-7204Zm-6.2-4.329a.427.427,0,0,0,.1.092l2.9,2.8a.281.281,0,0,0,.205.085.279.279,0,0,0,.2-.085l2.9-2.792.014-.02a.354.354,0,0,0,.042-.036.468.468,0,0,0,.049-.046h-1.422a.279.279,0,0,1-.265-.163l-.258-.523-.681,2.259a.314.314,0,0,1-.107.153.285.285,0,0,1-.177.059.3.3,0,0,1-.183-.059.283.283,0,0,1-.1-.153l-.887-3.106-.326,1.308a.257.257,0,0,1-.105.16.283.283,0,0,1-.183.065Zm2.308-2.981a.307.307,0,0,1,.183.063.3.3,0,0,1,.111.153l.912,3.194.6-2a.28.28,0,0,1,.262-.212h.029a.292.292,0,0,1,.141.038.27.27,0,0,1,.117.127l.517,1.026h1.717a2.54,2.54,0,0,0,.48-1.4,2.143,2.143,0,0,0-.592-1.6,2.251,2.251,0,0,0-1.632-.576,1.8,1.8,0,0,0-.588.1,2.383,2.383,0,0,0-.56.268c-.188.125-.329.227-.444.32a4.086,4.086,0,0,0-.354.314,4.427,4.427,0,0,0-.355-.314c-.118-.1-.265-.2-.445-.32a2.351,2.351,0,0,0-.556-.268,1.8,1.8,0,0,0-.592-.1,2.248,2.248,0,0,0-1.631.576,2.143,2.143,0,0,0-.592,1.6,2.543,2.543,0,0,0,.48,1.4h1.968l.54-2.158a.283.283,0,0,1,.1-.16A.3.3,0,0,1-13021.9-7211.31Z" transform="translate(14158 7828)" fill="#fff"/>
  </g>
</svg>
