<svg xmlns="http://www.w3.org/2000/svg" width="40" height="40" viewBox="0 0 40 40">
  <g id="ic_map_40_16_e" transform="translate(-1123 -605)">
    <g id="ic_widget_map" transform="translate(1123 605)">
      <g id="n" fill="#f1416c" stroke="#bb2046" stroke-width="1">
        <circle cx="20" cy="20" r="20" stroke="none"/>
        <circle cx="20" cy="20" r="19.5" fill="none"/>
      </g>
    </g>
    <path id="빼기_23" data-name="빼기 23" d="M9.42,24.388a9.4,9.4,0,0,1-3.643-.726,9.176,9.176,0,0,1-3.01-1.977,9.329,9.329,0,0,1-2.016-3A9.467,9.467,0,0,1,0,14.955a10.14,10.14,0,0,1,.92-3.861A21.761,21.761,0,0,1,3.287,6.87,46.581,46.581,0,0,1,8.465.921L9.42,0a8.346,8.346,0,0,0,1.059.921c.605.622,1.457,1.566,2.4,2.66,1.164,1.362,2.033,2.4,2.768,3.382a22.876,22.876,0,0,1,2.307,4.14,10.174,10.174,0,0,1,.943,3.866,9.23,9.23,0,0,1-.738,3.642,9.543,9.543,0,0,1-2.006,3.01A9.6,9.6,0,0,1,9.42,24.388Zm3.047-8.693a2.806,2.806,0,0,0-2.062.735,2.519,2.519,0,0,0-.727,1.841v.661a2.509,2.509,0,0,0,.732,1.847,2.845,2.845,0,0,0,2.074.729,2.773,2.773,0,0,0,2.051-.725,2.552,2.552,0,0,0,.717-1.852v-.661a2.559,2.559,0,0,0-.717-1.846A2.775,2.775,0,0,0,12.467,15.694ZM11.684,9.95h0l-6.1,9.772L6.93,20.4l6.107-9.772Zm-5.168-1.3a2.756,2.756,0,0,0-2.051.735,2.545,2.545,0,0,0-.721,1.852v.66a2.483,2.483,0,0,0,.725,1.838,2.793,2.793,0,0,0,2.064.73,2.771,2.771,0,0,0,2.053-.727A2.5,2.5,0,0,0,9.307,11.9v-.66a2.531,2.531,0,0,0-.721-1.852A2.789,2.789,0,0,0,6.516,8.651Zm5.969,11.294a.888.888,0,0,1-.67-.3,1.021,1.021,0,0,1-.275-.711v-.661a1.089,1.089,0,0,1,.242-.716.938.938,0,0,1,1.369,0,1.093,1.093,0,0,1,.244.716v.661a1.288,1.288,0,0,1-.189.749A.825.825,0,0,1,12.484,19.945ZM6.533,12.9a.858.858,0,0,1-.7-.289A1.092,1.092,0,0,1,5.6,11.9v-.66a1.131,1.131,0,0,1,.236-.727.823.823,0,0,1,.68-.3.832.832,0,0,1,.689.3,1.12,1.12,0,0,1,.236.727v.66a1.079,1.079,0,0,1-.232.716A.827.827,0,0,1,6.533,12.9Z" transform="translate(1133.502 612.806)" fill="#fff"/>
  </g>
</svg>
