<svg xmlns="http://www.w3.org/2000/svg" width="28" height="28" viewBox="0 0 28 28">
  <g id="ic_map_11_er" transform="translate(-1123 -486)">
    <g id="ic_widget_map" transform="translate(1123 486)">
      <g id="p" fill="#f1416c" stroke="#bb2046" stroke-width="1">
        <circle cx="14" cy="14" r="14" stroke="none"/>
        <circle cx="14" cy="14" r="13.5" fill="none"/>
      </g>
    </g>
    <path id="다각형_5" data-name="다각형 5" d="M6.719.842a1,1,0,0,1,1.549.51l.026.085a1,1,0,0,0,.981.706l.107,0a1,1,0,0,1,.963,1.343h0a1,1,0,0,0,.386,1.178l.009.006a1,1,0,0,1,0,1.666l-.009.006a1,1,0,0,0-.386,1.178h0A1,1,0,0,1,9.381,8.86l-.107,0a1,1,0,0,0-.981.706l-.026.085a1,1,0,0,1-1.549.51l-.124-.092a1,1,0,0,0-1.189,0l-.124.092a1,1,0,0,1-1.549-.51l-.026-.085a1,1,0,0,0-.981-.706l-.107,0a1,1,0,0,1-.963-1.343h0A1,1,0,0,0,1.27,6.339l-.009-.006a1,1,0,0,1,0-1.666l.009-.006a1,1,0,0,0,.386-1.178h0A1,1,0,0,1,2.619,2.14l.107,0a1,1,0,0,0,.981-.706l.026-.085A1,1,0,0,1,5.281.842l.124.092a1,1,0,0,0,1.189,0Z" transform="translate(1127.5 497)" fill="#fff"/>
    <path id="다각형_6" data-name="다각형 6" d="M2.819.433a.617.617,0,0,1,.918.38h0a.617.617,0,0,0,.451.451h0a.617.617,0,0,1,.38.918h0a.617.617,0,0,0,0,.638h0a.617.617,0,0,1-.38.918h0a.617.617,0,0,0-.451.451h0a.617.617,0,0,1-.918.38h0a.617.617,0,0,0-.638,0h0a.617.617,0,0,1-.918-.38h0a.617.617,0,0,0-.451-.451h0a.617.617,0,0,1-.38-.918h0a.617.617,0,0,0,0-.638h0a.617.617,0,0,1,.38-.918h0A.617.617,0,0,0,1.264.813h0a.617.617,0,0,1,.918-.38h0a.617.617,0,0,0,.638,0Z" transform="translate(1137 492)" fill="#fff" opacity="0.7"/>
    <path id="다각형_7" data-name="다각형 7" d="M2.819.433a.617.617,0,0,1,.918.38h0a.617.617,0,0,0,.451.451h0a.617.617,0,0,1,.38.918h0a.617.617,0,0,0,0,.638h0a.617.617,0,0,1-.38.918h0a.617.617,0,0,0-.451.451h0a.617.617,0,0,1-.918.38h0a.617.617,0,0,0-.638,0h0a.617.617,0,0,1-.918-.38h0a.617.617,0,0,0-.451-.451h0a.617.617,0,0,1-.38-.918h0a.617.617,0,0,0,0-.638h0a.617.617,0,0,1,.38-.918h0A.617.617,0,0,0,1.264.813h0a.617.617,0,0,1,.918-.38h0a.617.617,0,0,0,.638,0Z" transform="translate(1142 501)" fill="#fff" opacity="0.7"/>
  </g>
</svg>
