<svg xmlns="http://www.w3.org/2000/svg" width="40" height="40" viewBox="0 0 40 40">
  <g id="ic_map_40_14_e" transform="translate(-1123 -605)">
    <g id="ic_widget_map" transform="translate(1123 605)">
      <g id="n" fill="#f1416c" stroke="#bb2046" stroke-width="1">
        <circle cx="20" cy="20" r="20" stroke="none"/>
        <circle cx="20" cy="20" r="19.5" fill="none"/>
      </g>
    </g>
    <path id="빼기_19" data-name="빼기 19" d="M11.428,18.14C5.127,18.14,0,16.859,0,15.283,0,14.8.494,14.32,1.428,13.9V9A7.927,7.927,0,0,1,3.054,4.163,8.063,8.063,0,0,1,7.166,1.322l.691,5.533.715-5.714H7.913c.228-.044.45-.076.659-.1V1a1,1,0,0,1,1-1h3.714a1,1,0,0,1,1,1v.045c.225.024.447.058.659.1h-.659L15,6.855l.691-5.533A8.059,8.059,0,0,1,19.8,4.163,7.927,7.927,0,0,1,21.429,9v4.9c.934.42,1.428.9,1.428,1.383C22.857,16.859,17.73,18.14,11.428,18.14Zm0-11A3.571,3.571,0,1,0,15,10.713,3.575,3.575,0,0,0,11.428,7.141Z" transform="translate(1131.571 615.429)" fill="#fff"/>
    <path id="합치기_26" data-name="합치기 26" d="M1.432,4.29V2.858H0V1.432H1.432V0H2.857V1.432h1.43V2.858H2.857V4.29Z" transform="translate(1140.856 624.072)" fill="#fff"/>
  </g>
</svg>
