<svg xmlns="http://www.w3.org/2000/svg" width="28" height="28" viewBox="0 0 28 28">
  <g id="ic_map_13_n" transform="translate(-1123 -605)">
    <g id="ic_widget_map" transform="translate(1123 605)">
      <g id="n" fill="#50cd89" stroke="#159d53" stroke-width="1">
        <circle cx="14" cy="14" r="14" stroke="none"/>
        <circle cx="14" cy="14" r="13.5" fill="none"/>
      </g>
    </g>
    <path id="패스_772" data-name="패스 772" d="M728.291,137.208h-1.558c-.011-.042-.022-.083-.033-.125-.665-2.4-1.853-3.958-4.205-3.958a3.48,3.48,0,0,0-3.546,2.344,2.749,2.749,0,0,0-.065.443h-.753a.409.409,0,0,0-.409.409v4.569a.409.409,0,0,0,.409.409h.5l-1.883,10.569a1.713,1.713,0,1,0,3.427-.017v-1.394l6.194-5.065a.31.31,0,0,0,.062-.4l-.319-.486a.285.285,0,0,0-.383-.087c-.7.421-2.771,1.662-3.5,2.018a5.148,5.148,0,0,1-2.076.387l-.043-.471V141.3h.477a.409.409,0,0,0,.409-.409v-4.569a.409.409,0,0,0-.409-.409h-.033a2.337,2.337,0,0,1,2.033-.886c1.818,0,2.219,2.08,2.219,2.08l.03.1H724.2a.409.409,0,0,0-.409.409v1.227a.409.409,0,0,0,.409.409h.614v2.182a.409.409,0,0,0,.409.409h.957l.031.19.669,1.617.554-.013-.183-1.621s0-.069.005-.192a.409.409,0,0,0,.285-.39v-2.182h.75a.409.409,0,0,0,.409-.409v-1.227A.409.409,0,0,0,728.291,137.208ZM718.5,152.687a.98.98,0,1,1,.98-.98A.98.98,0,0,1,718.5,152.687Z" transform="translate(415.6 475.647)" fill="#fff"/>
  </g>
</svg>
