<svg id="ic_map_40_02_e" xmlns="http://www.w3.org/2000/svg" width="40" height="40" viewBox="0 0 40 40">
  <g id="ic_widget_map">
    <g id="n" fill="#f1416c" stroke="#bb2046" stroke-width="1">
      <circle cx="20" cy="20" r="20" stroke="none"/>
      <circle cx="20" cy="20" r="19.5" fill="none"/>
    </g>
  </g>
  <path id="Icon_open-video" data-name="Icon open-video" d="M3.778,0a1.324,1.324,0,0,0-1.32,1.32V11.882a1.324,1.324,0,0,0,1.32,1.32h9.691a1.307,1.307,0,0,0,1.32-1.32V7.921l2.64,2.64h2.64V2.64h-2.64l-2.64,2.64V1.32A1.307,1.307,0,0,0,13.469,0Z" transform="translate(3.91 13.209)" fill="#fff"/>
  <path id="패스_773" data-name="패스 773" d="M13.4,3.439a.994.994,0,0,0-.23-1.389,10.936,10.936,0,0,0-12.749,0,1,1,0,1,0,1.16,1.619,8.953,8.953,0,0,1,10.429,0,1,1,0,0,0,1.39-.23ZM11.078,6.682a.994.994,0,0,0-.23-1.389,7.08,7.08,0,0,0-8.113,0A1,1,0,1,0,3.9,6.912a5.067,5.067,0,0,1,5.793,0,1,1,0,0,0,1.39-.23Z" transform="translate(33.936 13.209) rotate(90)" fill="#fff" opacity="0.7"/>
</svg>
