<svg xmlns="http://www.w3.org/2000/svg" width="60" height="60" viewBox="0 0 60 60">
  <g id="ic_map_60_03_e" transform="translate(-1124 -165)">
    <circle id="er" cx="30" cy="30" r="30" transform="translate(1124 165)" fill="#f1416c"/>
    <g id="gen018" transform="translate(1140.236 180)">
      <path id="빼기_3" data-name="빼기 3" d="M12.754,30.717A2.35,2.35,0,0,1,11,29.933L3.243,21.258A12.756,12.756,0,0,1,11.269.084,13.1,13.1,0,0,1,12.754,0a12.756,12.756,0,0,1,9.51,21.258L14.5,29.933A2.351,2.351,0,0,1,12.754,30.717Zm0-22.744a4.784,4.784,0,1,0,4.784,4.783A4.789,4.789,0,0,0,12.753,7.973Z" fill="#fff"/>
    </g>
  </g>
</svg>
