<svg xmlns="http://www.w3.org/2000/svg" width="60" height="60" viewBox="0 0 60 60">
  <g id="ic_map_60_15_e" transform="translate(-1123 -605)">
    <circle id="er" cx="30" cy="30" r="30" transform="translate(1123 605)" fill="#f1416c"/>
    <rect id="사각형_297" data-name="사각형 297" width="12.857" height="8.571" transform="translate(1146.572 613.571)" fill="#fff" opacity="0.5"/>
    <rect id="사각형_298" data-name="사각형 298" width="12.857" height="8.571" transform="translate(1146.572 647.857)" fill="#fff" opacity="0.5"/>
    <path id="빼기_25" data-name="빼기 25" d="M15.428,21.429H6a6.007,6.007,0,0,1-6-6V6A6.007,6.007,0,0,1,6,0h9.428a6.007,6.007,0,0,1,6,6V15.43A6.007,6.007,0,0,1,15.428,21.429ZM3.843,12.151a.913.913,0,0,0,.21.2l6.223,6a.627.627,0,0,0,.878,0l6.214-5.983.03-.04c.024-.018.052-.041.09-.075a.926.926,0,0,0,.1-.1H14.544a.6.6,0,0,1-.569-.349l-.558-1.117-1.456,4.837a.635.635,0,0,1-.229.329.609.609,0,0,1-.379.13.627.627,0,0,1-.389-.13.634.634,0,0,1-.229-.329L8.84,8.87l-.7,2.8a.6.6,0,0,1-.224.344.629.629,0,0,1-.394.135ZM8.789,5.768a.646.646,0,0,1,.394.13.627.627,0,0,1,.234.329l1.955,6.841L12.659,8.78a.593.593,0,0,1,.558-.459.627.627,0,0,1,.618.349l1.107,2.2h3.68A5.445,5.445,0,0,0,19.65,7.882a4.593,4.593,0,0,0-1.266-3.43,4.817,4.817,0,0,0-3.5-1.237,3.985,3.985,0,0,0-1.262.214,5.151,5.151,0,0,0-1.2.578c-.364.24-.684.469-.952.683a9.41,9.41,0,0,0-.758.679,9.406,9.406,0,0,0-.758-.679c-.268-.214-.588-.443-.952-.683a5.164,5.164,0,0,0-1.2-.578,3.994,3.994,0,0,0-1.262-.214,4.817,4.817,0,0,0-3.5,1.237,4.593,4.593,0,0,0-1.266,3.43,5.444,5.444,0,0,0,1.027,2.992H7.025L8.182,6.247A.6.6,0,0,1,8.4,5.9.611.611,0,0,1,8.789,5.768Z" transform="translate(1142.286 624.285)" fill="#fff"/>
  </g>
</svg>
