<svg xmlns="http://www.w3.org/2000/svg" width="40" height="40" viewBox="0 0 40 40">
  <g id="ic_map_40_09_e" transform="translate(-262 -613)">
    <g id="ic_widget_map" transform="translate(262 613)">
      <g id="n" fill="#f1416c" stroke="#bb2046" stroke-width="1">
        <circle cx="20" cy="20" r="20" stroke="none"/>
        <circle cx="20" cy="20" r="19.5" fill="none"/>
      </g>
    </g>
    <path id="패스_765" data-name="패스 765" d="M0,0" transform="translate(292.499 643.499) rotate(135)" fill="none" stroke="#fff" stroke-width="1.6"/>
    <path id="패스_770" data-name="패스 770" d="M138.272,187.842c-.511-.093-1.033-.147-1.532-.284-2.677-.741-4.72-2.226-5.382-5.057a7.792,7.792,0,0,1,1.295-6.461c1.233-1.748,2.583-3.415,3.8-5.172a12.509,12.509,0,0,0,2.25-5.557c.083-.64.056-1.295.075-1.943.007-.237,0-.474,0-.811a3.98,3.98,0,0,1,.463.208,16.834,16.834,0,0,1,6.428,7.794c.814,1.931,2.742,3.649,2.226-2-.262-2.409,5.347,7.971,2.733,14.666-1.723,3.176-2.652,3.588-6.133,4.44a7.626,7.626,0,0,1-1.762.11c-.637-.049-.232-.548-.123-.645.563-.5,1.184-.945,1.7-1.491a4.3,4.3,0,0,0,.746-5.2,20.015,20.015,0,0,0-4.331-5.849c-.655-.612-1.058-.5-1.258.379a9.872,9.872,0,0,1-1.886,3.9,12.2,12.2,0,0,0-1.237,1.825,5.031,5.031,0,0,0,1.46,6.409C138.949,187.873,138.312,187.77,138.272,187.842Z" transform="translate(140.861 457.801)" fill="#fff"/>
  </g>
</svg>
