<svg xmlns="http://www.w3.org/2000/svg" width="28" height="28" viewBox="0 0 28 28">
  <g id="ic_map_04_er" transform="translate(-262 -613)">
    <g id="ic_widget_map_nor" transform="translate(262 613)">
      <g id="p" fill="#f1416c" stroke="#bb2046" stroke-width="1">
        <circle cx="14" cy="14" r="14" stroke="none"/>
        <circle cx="14" cy="14" r="13.5" fill="none"/>
      </g>
    </g>
    <path id="Icon_ionic-ios-hand" data-name="Icon ionic-ios-hand" d="M15.95,5.363a.625.625,0,0,0-.649.591V9.093a.275.275,0,0,1-.548,0V4.462a.652.652,0,0,0-1.3,0V8.1a.275.275,0,0,1-.548,0V3.966a.652.652,0,0,0-1.3,0V8.6a.275.275,0,0,1-.548,0V4.959a.652.652,0,0,0-1.3,0v6.263L8.9,10.545c-.8-.651-1.483-.93-2.037-.45-.372.339.212.887.825,1.526.591.617,2.154,2.637,3.487,3.365a2.525,2.525,0,0,0,1.25.327h1.76A2.437,2.437,0,0,0,16.6,12.639V5.954A.63.63,0,0,0,15.95,5.363Z" transform="translate(263.338 617.581)" fill="#fff" opacity="0.7"/>
    <g id="패스_766" data-name="패스 766" transform="translate(265 616)" fill="none">
      <path d="M11,0A11,11,0,1,1,0,11,11,11,0,0,1,11,0Z" stroke="none"/>
      <path d="M 11 1.600000381469727 C 5.81682014465332 1.600000381469727 1.600000381469727 5.81682014465332 1.600000381469727 11 C 1.600000381469727 16.18317985534668 5.81682014465332 20.39999961853027 11 20.39999961853027 C 16.18317985534668 20.39999961853027 20.39999961853027 16.18317985534668 20.39999961853027 11 C 20.39999961853027 5.81682014465332 16.18317985534668 1.600000381469727 11 1.600000381469727 M 11 0 C 17.07513046264648 0 22 4.924869537353516 22 11 C 22 17.07513046264648 17.07513046264648 22 11 22 C 4.924869537353516 22 0 17.07513046264648 0 11 C 0 4.924869537353516 4.924869537353516 0 11 0 Z" stroke="none" fill="#fff"/>
    </g>
    <line id="선_1" data-name="선 1" y1="21" transform="translate(283.349 634.349) rotate(135)" fill="none" stroke="#fff" stroke-width="1.6"/>
  </g>
</svg>
