<svg xmlns="http://www.w3.org/2000/svg" width="60" height="60" viewBox="0 0 60 60">
  <g id="ic_map_60_13_n" transform="translate(-1123 -605)">
    <g id="ic_widget_map" transform="translate(1123 605)">
      <circle id="n" cx="30" cy="30" r="30" fill="#50cd89"/>
    </g>
    <path id="패스_772" data-name="패스 772" d="M741.481,141.874h-3.338c-.024-.089-.047-.179-.071-.268-1.425-5.151-3.97-8.481-9.011-8.481s-7.014,3.233-7.6,5.023a5.9,5.9,0,0,0-.139.95h-1.614a.877.877,0,0,0-.877.877v9.79a.877.877,0,0,0,.877.877h1.076L716.75,173.29a3.671,3.671,0,1,0,7.343-.037v-2.987l13.273-10.854a.664.664,0,0,0,.132-.859l-.683-1.042a.612.612,0,0,0-.821-.187c-1.5.9-5.937,3.561-7.506,4.325a11.031,11.031,0,0,1-4.449.83l-.093-1.009V150.641h1.023a.877.877,0,0,0,.877-.877v-9.79a.877.877,0,0,0-.877-.877H724.9a5.007,5.007,0,0,1,4.357-1.9c3.9,0,4.755,4.456,4.755,4.456l.064.219h-1.361a.877.877,0,0,0-.877.877v2.63a.877.877,0,0,0,.877.877h1.315v4.676a.877.877,0,0,0,.877.877h2.051l.067.406,1.434,3.465,1.188-.028-.393-3.473s.006-.147.011-.411a.878.878,0,0,0,.61-.835v-4.676h1.607a.877.877,0,0,0,.877-.877v-2.63A.877.877,0,0,0,741.481,141.874Zm-20.986,33.169a2.1,2.1,0,1,1,2.1-2.1A2.1,2.1,0,0,1,720.494,175.043Z" transform="translate(426.285 479.957)" fill="#fff"/>
  </g>
</svg>
