<svg xmlns="http://www.w3.org/2000/svg" width="60" height="60" viewBox="0 0 60 60">
  <g id="ic_map_60_07_n" transform="translate(-262 -613)">
    <g id="ic_widget_map" transform="translate(262 613)">
      <circle id="n" cx="30" cy="30" r="30" fill="#50cd89"/>
    </g>
    <path id="Icon_feather-thermometer" data-name="Icon feather-thermometer" d="M21.6,23.326V5.465a3.965,3.965,0,1,0-7.931,0V23.326a7.138,7.138,0,1,0,7.931,0Z" transform="translate(273.244 624.974)" fill="none" stroke="#fff" stroke-linecap="round" stroke-linejoin="round" stroke-width="3"/>
    <path id="합치기_23" data-name="합치기 23" d="M0,17.572a3.216,3.216,0,0,1,2.143-3.031V-2.929A1.071,1.071,0,0,1,3.215-4,1.071,1.071,0,0,1,4.286-2.929V14.541A3.215,3.215,0,1,1,0,17.572Z" transform="translate(287.714 636.571)" fill="#fff" opacity="0.7"/>
    <path id="합치기_28" data-name="합치기 28" d="M0,15V12.86H4.292V15ZM0,8.568V6.426H4.292V8.568ZM0,2.142V0H4.292V2.142Z" transform="translate(300.567 630.143)" fill="#fff"/>
  </g>
</svg>
