<svg xmlns="http://www.w3.org/2000/svg" width="60" height="60" viewBox="0 0 60 60">
  <g id="ic_map_60_06_e" transform="translate(-262 -613)">
    <circle id="er" cx="30" cy="30" r="30" transform="translate(262 613)" fill="#f1416c"/>
    <path id="Icon_metro-heartbeat" data-name="Icon metro-heartbeat" d="M26.918,21.45h5.8a1.93,1.93,0,0,1-.19.2q-.1.086-.171.143l-.057.076L20.451,33.281a1.194,1.194,0,0,1-1.674,0L6.908,21.83a1.8,1.8,0,0,1-.4-.38h7.019a1.2,1.2,0,0,0,.751-.257,1.142,1.142,0,0,0,.428-.656l1.331-5.345,3.614,12.687a1.212,1.212,0,0,0,.437.628,1.188,1.188,0,0,0,.742.247,1.161,1.161,0,0,0,.723-.247,1.212,1.212,0,0,0,.437-.628l2.777-9.225,1.065,2.13a1.14,1.14,0,0,0,1.084.666Zm9.739-8.141A10.34,10.34,0,0,1,34.7,19.015H27.679l-2.111-4.2a1.147,1.147,0,0,0-.485-.514,1.211,1.211,0,0,0-1.759.723L20.869,23.2,17.141,10.151a1.194,1.194,0,0,0-.447-.628,1.228,1.228,0,0,0-.751-.247,1.189,1.189,0,0,0-1.16.913l-2.207,8.826H4.53a10.34,10.34,0,0,1-1.959-5.706A8.724,8.724,0,0,1,4.986,6.766a9.15,9.15,0,0,1,6.676-2.359,7.581,7.581,0,0,1,2.406.409,9.74,9.74,0,0,1,2.283,1.1q1.056.694,1.817,1.3a17.542,17.542,0,0,1,1.446,1.293,17.521,17.521,0,0,1,1.446-1.293q.761-.609,1.817-1.3a9.738,9.738,0,0,1,2.283-1.1,7.582,7.582,0,0,1,2.406-.409,9.15,9.15,0,0,1,6.676,2.359,8.724,8.724,0,0,1,2.416,6.543Z" transform="translate(272.388 625.741)" fill="#fff"/>
  </g>
</svg>
