<svg xmlns="http://www.w3.org/2000/svg" width="40" height="40" viewBox="0 0 40 40">
  <g id="ic_map_40_04_e" transform="translate(-262 -613)">
    <g id="ic_widget_map_nor" transform="translate(262 613)">
      <g id="n" fill="#f1416c" stroke="#bb2046" stroke-width="1">
        <circle cx="20" cy="20" r="20" stroke="none"/>
        <circle cx="20" cy="20" r="19.5" fill="none"/>
      </g>
    </g>
    <path id="Icon_ionic-ios-hand" data-name="Icon ionic-ios-hand" d="M19.892,6.215a.893.893,0,0,0-.928.844v4.484a.393.393,0,0,1-.783,0V4.928a.932.932,0,0,0-1.855,0v5.2a.393.393,0,0,1-.783,0V4.219a.932.932,0,0,0-1.855,0v6.615a.393.393,0,0,1-.783,0v-5.2a.932.932,0,0,0-1.855,0v8.947l-1.222-.967c-1.148-.93-2.119-1.328-2.911-.643-.532.484.3,1.266,1.178,2.18.844.881,3.078,3.767,4.982,4.808a3.607,3.607,0,0,0,1.785.467h2.515c2.027,0,3.447-1.553,3.447-3.82V7.06A.9.9,0,0,0,19.892,6.215Z" transform="translate(266.804 620.99)" fill="#fff" opacity="0.7"/>
    <g id="패스_766" data-name="패스 766" transform="translate(266.286 617.286)" fill="none">
      <path d="M15.714,0A15.714,15.714,0,1,1,0,15.714,15.714,15.714,0,0,1,15.714,0Z" stroke="none"/>
      <path d="M 15.7142858505249 1.999996185302734 C 12.05106544494629 1.999996185302734 8.607105255126953 3.426536560058594 6.016815185546875 6.016815185546875 C 3.426536560058594 8.607105255126953 1.999996185302734 12.05106544494629 1.999996185302734 15.7142858505249 C 1.999996185302734 19.37750625610352 3.426536560058594 22.82146453857422 6.016815185546875 25.41175651550293 C 8.607105255126953 28.00203514099121 12.05106544494629 29.42857551574707 15.7142858505249 29.42857551574707 C 19.37750625610352 29.42857551574707 22.82146453857422 28.00203514099121 25.41175651550293 25.41175651550293 C 28.00203514099121 22.82146453857422 29.42857551574707 19.37750625610352 29.42857551574707 15.7142858505249 C 29.42857551574707 12.05106544494629 28.00203514099121 8.607105255126953 25.41175651550293 6.016815185546875 C 22.82146453857422 3.426536560058594 19.37750625610352 1.999996185302734 15.7142858505249 1.999996185302734 M 15.7142858505249 -3.814697265625e-06 C 24.39304542541504 -3.814697265625e-06 31.42857551574707 7.035526275634766 31.42857551574707 15.7142858505249 C 31.42857551574707 24.39304542541504 24.39304542541504 31.42857551574707 15.7142858505249 31.42857551574707 C 7.035526275634766 31.42857551574707 -3.814697265625e-06 24.39304542541504 -3.814697265625e-06 15.7142858505249 C -3.814697265625e-06 7.035526275634766 7.035526275634766 -3.814697265625e-06 15.7142858505249 -3.814697265625e-06 Z" stroke="none" fill="#fff"/>
    </g>
    <line id="선_1" data-name="선 1" y1="30" transform="translate(292.499 643.499) rotate(135)" fill="none" stroke="#fff" stroke-width="2"/>
  </g>
</svg>
