<svg xmlns="http://www.w3.org/2000/svg" width="28" height="28" viewBox="0 0 28 28">
  <g id="ic_map_10_er" transform="translate(-262 -613)">
    <g id="ic_widget_map" transform="translate(262 613)">
      <g id="p" fill="#f1416c" stroke="#bb2046" stroke-width="1">
        <circle cx="14" cy="14" r="14" stroke="none"/>
        <circle cx="14" cy="14" r="13.5" fill="none"/>
      </g>
    </g>
    <path id="패스_765" data-name="패스 765" d="M0,0" transform="translate(283.349 634.349) rotate(135)" fill="none" stroke="#fff" stroke-width="1.6"/>
    <path id="패스_769" data-name="패스 769" d="M429.59,239.668c-.274-1.4-.555-2.8-.82-4.2a1.38,1.38,0,0,0-1.412-1.354,1.578,1.578,0,0,1-1.33-1.055,1.6,1.6,0,0,1,.355-1.72c.337-.348.28-.443-.148-.613a3.793,3.793,0,0,1-2.305-3.406,6.014,6.014,0,0,1,3.32-6.081c1.6-.689,4.984-.765,6.189,1.157.161.257.391.2.618.214a8.922,8.922,0,0,1,1.712.094,4.192,4.192,0,0,1,3.313,5.333,4.924,4.924,0,0,1-4.814,3.89c-.536.03-.748.164-.78.717a2.491,2.491,0,0,1-1.853,2.346c-1.354.43-1.466,1.062-1.592,2.149-.1.838-.2,1.675-.3,2.513Z" transform="translate(-154.907 397.769)" fill="#fff"/>
  </g>
</svg>
