<svg xmlns="http://www.w3.org/2000/svg" width="40" height="40" viewBox="0 0 40 40">
  <g id="ic_map_40_13" transform="translate(-1123 -605)">
    <g id="ic_widget_map" transform="translate(1123 605)">
      <g id="n" fill="#50cd89" stroke="#159d53" stroke-width="1">
        <circle cx="20" cy="20" r="20" stroke="none"/>
        <circle cx="20" cy="20" r="19.5" fill="none"/>
      </g>
    </g>
    <path id="패스_772" data-name="패스 772" d="M733.237,138.958h-2.225c-.016-.06-.031-.119-.047-.179-.95-3.434-2.646-5.654-6.007-5.654a4.972,4.972,0,0,0-5.066,3.349,3.929,3.929,0,0,0-.093.633h-1.076a.584.584,0,0,0-.584.584v6.527a.584.584,0,0,0,.584.585h.717l-2.69,15.1a2.448,2.448,0,1,0,4.9-.024v-1.991l8.849-7.236a.443.443,0,0,0,.088-.573l-.456-.695a.408.408,0,0,0-.547-.125c-1,.6-3.958,2.374-5,2.883a7.355,7.355,0,0,1-2.966.553l-.062-.672V144.8h.682a.584.584,0,0,0,.584-.585v-6.527a.584.584,0,0,0-.584-.584h-.048a3.338,3.338,0,0,1,2.9-1.266c2.6,0,3.17,2.971,3.17,2.971l.043.146h-.907a.584.584,0,0,0-.584.584V141.3a.584.584,0,0,0,.584.584h.877V145a.584.584,0,0,0,.585.584h1.367l.045.271.956,2.31.792-.019-.262-2.315s0-.1.007-.274a.585.585,0,0,0,.407-.557V141.88h1.071a.584.584,0,0,0,.584-.584v-1.753A.584.584,0,0,0,733.237,138.958Zm-13.991,22.113a1.4,1.4,0,1,1,1.4-1.4A1.4,1.4,0,0,1,719.246,161.071Z" transform="translate(419.607 477.263)" fill="#fff"/>
  </g>
</svg>
