<svg xmlns="http://www.w3.org/2000/svg" width="60" height="60" viewBox="0 0 60 60">
  <g id="ic_map_60_16_e" transform="translate(-1123 -605)">
    <circle id="er" cx="30" cy="30" r="30" transform="translate(1123 605)" fill="#f1416c"/>
    <path id="빼기_23" data-name="빼기 23" d="M14.13,36.582a14.093,14.093,0,0,1-5.464-1.088,13.764,13.764,0,0,1-4.515-2.965,13.994,13.994,0,0,1-3.023-4.494A14.2,14.2,0,0,1,0,22.433a15.211,15.211,0,0,1,1.38-5.792,32.642,32.642,0,0,1,3.551-6.335A69.871,69.871,0,0,1,12.7,1.381L14.13,0a12.519,12.519,0,0,0,1.588,1.381c.908.933,2.186,2.35,3.595,3.99,1.746,2.043,3.05,3.6,4.151,5.073a34.314,34.314,0,0,1,3.46,6.209,15.26,15.26,0,0,1,1.415,5.8,13.845,13.845,0,0,1-1.107,5.462,14.314,14.314,0,0,1-3.009,4.515A14.405,14.405,0,0,1,14.13,36.582Zm4.57-13.04a4.208,4.208,0,0,0-3.094,1.1,3.778,3.778,0,0,0-1.09,2.761V28.4a3.764,3.764,0,0,0,1.1,2.77,4.267,4.267,0,0,0,3.111,1.094A4.159,4.159,0,0,0,21.8,31.175,3.828,3.828,0,0,0,22.878,28.4v-.992A3.838,3.838,0,0,0,21.8,24.637,4.162,4.162,0,0,0,18.7,23.542Zm-1.175-8.616h0L8.373,29.584,10.395,30.6l9.161-14.659ZM9.773,12.977A4.135,4.135,0,0,0,6.7,14.08a3.818,3.818,0,0,0-1.081,2.777v.99A3.724,3.724,0,0,0,6.7,20.6a4.19,4.19,0,0,0,3.1,1.1,4.156,4.156,0,0,0,3.079-1.09,3.751,3.751,0,0,0,1.081-2.763v-.99a3.8,3.8,0,0,0-1.081-2.777A4.183,4.183,0,0,0,9.773,12.977Zm8.953,16.941a1.332,1.332,0,0,1-1-.454,1.531,1.531,0,0,1-.413-1.066v-.992a1.634,1.634,0,0,1,.363-1.074,1.407,1.407,0,0,1,2.054,0,1.639,1.639,0,0,1,.366,1.074V28.4a1.932,1.932,0,0,1-.284,1.124A1.238,1.238,0,0,1,18.727,29.918ZM9.8,19.355a1.286,1.286,0,0,1-1.046-.434A1.638,1.638,0,0,1,8.4,17.848v-.99a1.7,1.7,0,0,1,.354-1.09,1.235,1.235,0,0,1,1.02-.445,1.249,1.249,0,0,1,1.034.445,1.68,1.68,0,0,1,.354,1.09v.99a1.618,1.618,0,0,1-.349,1.074A1.241,1.241,0,0,1,9.8,19.355Z" transform="translate(1138.753 616.71)" fill="#fff"/>
  </g>
</svg>
