<svg xmlns="http://www.w3.org/2000/svg" width="40" height="40" viewBox="0 0 40 40">
  <g id="ic_map_40_15" transform="translate(-1123 -605)">
    <g id="ic_widget_map" transform="translate(1123 605)">
      <g id="n" fill="#50cd89" stroke="#159d53" stroke-width="1">
        <circle cx="20" cy="20" r="20" stroke="none"/>
        <circle cx="20" cy="20" r="19.5" fill="none"/>
      </g>
    </g>
    <rect id="사각형_297" data-name="사각형 297" width="8.571" height="5.714" transform="translate(1138.714 610.714)" fill="#fff" opacity="0.5"/>
    <rect id="사각형_298" data-name="사각형 298" width="8.571" height="5.714" transform="translate(1138.714 633.571)" fill="#fff" opacity="0.5"/>
    <path id="빼기_25" data-name="빼기 25" d="M12.287,14.284H2a2,2,0,0,1-2-2V2A2,2,0,0,1,2,0H12.287a2,2,0,0,1,2,2V12.284A2,2,0,0,1,12.287,14.284ZM2.564,8.1a.625.625,0,0,0,.139.132l4.149,4a.417.417,0,0,0,.585,0l4.142-3.989.02-.027a.6.6,0,0,0,.059-.049.614.614,0,0,0,.067-.069H9.7a.4.4,0,0,1-.379-.233l-.372-.744-.971,3.224a.421.421,0,0,1-.153.22.4.4,0,0,1-.253.086.418.418,0,0,1-.259-.086.431.431,0,0,1-.153-.22L5.895,5.911,5.43,7.78a.407.407,0,0,1-.149.229.427.427,0,0,1-.263.09Zm3.3-4.255a.431.431,0,0,1,.263.086.415.415,0,0,1,.156.22l1.3,4.56.858-2.858a.4.4,0,0,1,.373-.306l.042,0a.425.425,0,0,1,.37.234l.738,1.47h2.453A3.63,3.63,0,0,0,13.1,5.253a3.059,3.059,0,0,0-.844-2.287,3.21,3.21,0,0,0-2.334-.824,2.662,2.662,0,0,0-.841.143,3.366,3.366,0,0,0-.8.385c-.251.165-.459.314-.635.455a6.223,6.223,0,0,0-.5.452,6.388,6.388,0,0,0-.506-.452c-.175-.14-.382-.289-.635-.455a3.39,3.39,0,0,0-.8-.385,2.653,2.653,0,0,0-.841-.143,3.21,3.21,0,0,0-2.334.824,3.062,3.062,0,0,0-.844,2.287,3.624,3.624,0,0,0,.685,1.994H4.685l.771-3.085a.415.415,0,0,1,.406-.319Z" transform="translate(1135.856 617.859)" fill="#fff"/>
  </g>
</svg>
