<svg xmlns="http://www.w3.org/2000/svg" width="28" height="28" viewBox="0 0 28 28">
  <g id="ic_map_15_n" transform="translate(-1123 -605)">
    <g id="ic_widget_map" transform="translate(1123 605)">
      <g id="n" fill="#50cd89" stroke="#159d53" stroke-width="1">
        <circle cx="14" cy="14" r="14" stroke="none"/>
        <circle cx="14" cy="14" r="13.5" fill="none"/>
      </g>
    </g>
    <rect id="사각형_297" data-name="사각형 297" width="6" height="4" transform="translate(1134 609)" fill="#fff" opacity="0.5"/>
    <rect id="사각형_298" data-name="사각형 298" width="6" height="4" transform="translate(1134 625)" fill="#fff" opacity="0.5"/>
    <path id="빼기_25" data-name="빼기 25" d="M-12966-7204h-6a2,2,0,0,1-2-2v-6a2,2,0,0,1,2-2h6a2,2,0,0,1,2,2v6A2,2,0,0,1-12966-7204Zm-6.206-4.331.017.018.01.011a.343.343,0,0,0,.071.066l2.9,2.8a.281.281,0,0,0,.205.085.278.278,0,0,0,.205-.085l2.9-2.793.016-.017.009-.008.007-.006.023-.021a.308.308,0,0,0,.049-.049h-1.419a.277.277,0,0,1-.264-.163l-.264-.521-.678,2.256a.3.3,0,0,1-.107.153.277.277,0,0,1-.179.062.273.273,0,0,1-.18-.062.284.284,0,0,1-.107-.153l-.886-3.1-.325,1.306a.27.27,0,0,1-.1.163.278.278,0,0,1-.182.062Zm2.309-2.979a.32.32,0,0,1,.186.062.28.28,0,0,1,.107.153l.912,3.194.6-2a.277.277,0,0,1,.261-.215h.029a.271.271,0,0,1,.141.041.261.261,0,0,1,.117.124l.518,1.029h1.716a2.531,2.531,0,0,0,.481-1.4,2.141,2.141,0,0,0-.592-1.6,2.243,2.243,0,0,0-1.635-.58,1.891,1.891,0,0,0-.586.1,2.421,2.421,0,0,0-.561.27,5.414,5.414,0,0,0-.442.319,3.973,3.973,0,0,0-.355.316,4.3,4.3,0,0,0-.354-.316c-.118-.1-.263-.2-.443-.319a2.378,2.378,0,0,0-.56-.27,1.882,1.882,0,0,0-.59-.1,2.235,2.235,0,0,0-1.631.58,2.139,2.139,0,0,0-.593,1.6,2.53,2.53,0,0,0,.482,1.4h1.966l.541-2.159a.262.262,0,0,1,.1-.16A.271.271,0,0,1-12969.9-7211.31Z" transform="translate(14106 7828)" fill="#fff"/>
  </g>
</svg>
